<svg width="442" height="175" viewBox="0 0 442 175" fill="none" xmlns="http://www.w3.org/2000/svg">
<path d="M103.151 110.048C103.037 110.205 102.922 110.327 102.807 110.413C102.693 110.499 102.535 110.542 102.334 110.542C102.119 110.542 101.883 110.456 101.625 110.284C101.367 110.098 101.044 109.897 100.657 109.682C100.285 109.467 99.8189 109.274 99.2599 109.102C98.7152 108.915 98.0416 108.822 97.2389 108.822C96.1639 108.822 95.2179 109.016 94.4009 109.403C93.5839 109.775 92.8959 110.32 92.3369 111.037C91.7922 111.753 91.3766 112.62 91.0899 113.638C90.8176 114.656 90.6814 115.795 90.6814 117.057C90.6814 118.375 90.8319 119.551 91.1329 120.583C91.4339 121.6 91.8567 122.46 92.4014 123.163C92.9604 123.851 93.6269 124.381 94.4009 124.754C95.1892 125.112 96.0707 125.291 97.0454 125.291C97.9771 125.291 98.7439 125.184 99.3459 124.969C99.9479 124.739 100.442 124.488 100.829 124.216C101.231 123.944 101.56 123.7 101.818 123.485C102.091 123.256 102.356 123.141 102.614 123.141C102.929 123.141 103.173 123.263 103.345 123.507L104.42 124.904C103.947 125.492 103.409 125.993 102.807 126.409C102.205 126.825 101.553 127.176 100.851 127.463C100.163 127.735 99.4391 127.936 98.6794 128.065C97.9197 128.194 97.1457 128.258 96.3574 128.258C94.9957 128.258 93.7272 128.007 92.5519 127.506C91.3909 127.004 90.3804 126.28 89.5204 125.334C88.6604 124.374 87.9867 123.198 87.4994 121.808C87.0121 120.418 86.7684 118.834 86.7684 117.057C86.7684 115.437 86.9906 113.939 87.4349 112.563C87.8936 111.187 88.5529 110.005 89.4129 109.016C90.2872 108.012 91.3551 107.231 92.6164 106.672C93.8921 106.113 95.3541 105.834 97.0024 105.834C98.5361 105.834 99.8834 106.084 101.044 106.586C102.22 107.073 103.259 107.769 104.162 108.672L103.151 110.048ZM120.332 118.153C118.569 118.21 117.064 118.354 115.817 118.583C114.584 118.798 113.573 119.085 112.785 119.443C112.011 119.801 111.445 120.224 111.087 120.712C110.743 121.199 110.571 121.744 110.571 122.346C110.571 122.919 110.664 123.413 110.85 123.829C111.036 124.245 111.287 124.589 111.603 124.861C111.932 125.119 112.312 125.313 112.742 125.442C113.186 125.556 113.659 125.614 114.161 125.614C114.835 125.614 115.451 125.549 116.01 125.42C116.569 125.277 117.092 125.076 117.58 124.818C118.081 124.56 118.554 124.252 118.999 123.894C119.457 123.535 119.902 123.127 120.332 122.668V118.153ZM107.969 109.252C109.173 108.091 110.47 107.224 111.861 106.651C113.251 106.077 114.792 105.791 116.483 105.791C117.701 105.791 118.784 105.991 119.73 106.393C120.676 106.794 121.471 107.353 122.116 108.07C122.761 108.786 123.248 109.653 123.578 110.671C123.908 111.689 124.073 112.807 124.073 114.025V127.957H122.374C122.001 127.957 121.715 127.9 121.514 127.785C121.313 127.656 121.156 127.412 121.041 127.054L120.611 124.99C120.038 125.52 119.479 125.993 118.934 126.409C118.389 126.81 117.816 127.154 117.214 127.441C116.612 127.713 115.967 127.921 115.279 128.065C114.605 128.222 113.853 128.301 113.022 128.301C112.176 128.301 111.38 128.186 110.635 127.957C109.89 127.713 109.238 127.355 108.679 126.882C108.134 126.409 107.697 125.814 107.367 125.098C107.052 124.367 106.894 123.507 106.894 122.518C106.894 121.658 107.131 120.833 107.604 120.045C108.077 119.242 108.843 118.533 109.904 117.917C110.965 117.3 112.348 116.799 114.054 116.412C115.759 116.01 117.852 115.781 120.332 115.724V114.025C120.332 112.334 119.966 111.058 119.235 110.198C118.504 109.324 117.436 108.887 116.032 108.887C115.086 108.887 114.29 109.008 113.645 109.252C113.014 109.481 112.463 109.747 111.99 110.048C111.531 110.334 111.13 110.599 110.786 110.843C110.456 111.072 110.126 111.187 109.797 111.187C109.539 111.187 109.316 111.123 109.13 110.994C108.944 110.85 108.786 110.678 108.657 110.478L107.969 109.252ZM133.858 96.2875V127.957H130.031V96.2875H133.858ZM140.064 127.957V106.178H142.365C142.909 106.178 143.246 106.443 143.375 106.973L143.655 109.209C144.457 108.22 145.36 107.41 146.364 106.78C147.367 106.149 148.528 105.834 149.847 105.834C151.309 105.834 152.491 106.242 153.394 107.059C154.312 107.876 154.971 108.98 155.372 110.37C155.688 109.582 156.089 108.901 156.576 108.328C157.078 107.754 157.637 107.281 158.253 106.909C158.87 106.536 159.522 106.264 160.21 106.092C160.912 105.92 161.622 105.834 162.338 105.834C163.485 105.834 164.503 106.02 165.391 106.393C166.294 106.751 167.054 107.281 167.67 107.984C168.301 108.686 168.781 109.553 169.111 110.585C169.44 111.603 169.605 112.771 169.605 114.09V127.957H165.757V114.09C165.757 112.384 165.384 111.094 164.639 110.22C163.893 109.331 162.818 108.887 161.414 108.887C160.783 108.887 160.181 109.001 159.608 109.231C159.049 109.446 158.554 109.768 158.124 110.198C157.694 110.628 157.35 111.173 157.092 111.832C156.849 112.477 156.727 113.23 156.727 114.09V127.957H152.878V114.09C152.878 112.341 152.527 111.037 151.825 110.177C151.122 109.317 150.098 108.887 148.75 108.887C147.804 108.887 146.93 109.145 146.127 109.661C145.325 110.162 144.586 110.85 143.913 111.725V127.957H140.064ZM179.464 106.178V127.957H175.637V106.178H179.464ZM180.281 99.3405C180.281 99.7132 180.202 100.064 180.044 100.394C179.901 100.709 179.7 100.996 179.442 101.254C179.198 101.498 178.905 101.691 178.561 101.835C178.231 101.978 177.88 102.05 177.507 102.05C177.134 102.05 176.783 101.978 176.454 101.835C176.138 101.691 175.859 101.498 175.615 101.254C175.371 100.996 175.178 100.709 175.035 100.394C174.891 100.064 174.82 99.7132 174.82 99.3405C174.82 98.9679 174.891 98.6167 175.035 98.287C175.178 97.943 175.371 97.6492 175.615 97.4055C175.859 97.1475 176.138 96.9469 176.454 96.8035C176.783 96.6602 177.134 96.5885 177.507 96.5885C177.88 96.5885 178.231 96.6602 178.561 96.8035C178.905 96.9469 179.198 97.1475 179.442 97.4055C179.7 97.6492 179.901 97.943 180.044 98.287C180.202 98.6167 180.281 98.9679 180.281 99.3405ZM189.364 109.338C189.837 108.808 190.338 108.328 190.869 107.898C191.399 107.468 191.958 107.102 192.546 106.801C193.148 106.486 193.778 106.249 194.438 106.092C195.111 105.92 195.835 105.834 196.609 105.834C197.799 105.834 198.845 106.034 199.748 106.436C200.666 106.823 201.425 107.382 202.027 108.113C202.644 108.829 203.109 109.696 203.425 110.714C203.74 111.732 203.898 112.857 203.898 114.09V127.957H200.049V114.09C200.049 112.441 199.669 111.166 198.91 110.263C198.164 109.345 197.025 108.887 195.491 108.887C194.359 108.887 193.298 109.159 192.309 109.704C191.335 110.248 190.432 110.986 189.6 111.918V127.957H185.752V106.178H188.052C188.597 106.178 188.934 106.443 189.063 106.973L189.364 109.338ZM217.319 117.315C218.093 117.315 218.774 117.207 219.361 116.992C219.949 116.777 220.443 116.476 220.845 116.089C221.246 115.702 221.547 115.243 221.748 114.713C221.948 114.168 222.049 113.574 222.049 112.929C222.049 111.596 221.64 110.535 220.823 109.747C220.021 108.958 218.852 108.564 217.319 108.564C215.771 108.564 214.588 108.958 213.771 109.747C212.969 110.535 212.567 111.596 212.567 112.929C212.567 113.574 212.668 114.168 212.868 114.713C213.083 115.243 213.391 115.702 213.793 116.089C214.194 116.476 214.689 116.777 215.276 116.992C215.864 117.207 216.545 117.315 217.319 117.315ZM224.22 129.14C224.22 128.609 224.07 128.179 223.769 127.85C223.468 127.52 223.059 127.262 222.543 127.076C222.042 126.889 221.454 126.76 220.78 126.689C220.107 126.603 219.39 126.538 218.63 126.495C217.885 126.452 217.125 126.409 216.351 126.366C215.577 126.323 214.832 126.251 214.115 126.151C213.313 126.524 212.653 126.997 212.137 127.57C211.636 128.129 211.385 128.788 211.385 129.548C211.385 130.035 211.507 130.487 211.75 130.903C212.008 131.333 212.395 131.698 212.911 131.999C213.427 132.314 214.072 132.558 214.846 132.73C215.635 132.916 216.559 133.01 217.62 133.01C218.652 133.01 219.576 132.916 220.393 132.73C221.21 132.544 221.898 132.279 222.457 131.935C223.031 131.591 223.468 131.182 223.769 130.709C224.07 130.236 224.22 129.713 224.22 129.14ZM228.112 107.038V108.457C228.112 108.93 227.811 109.231 227.209 109.36L224.736 109.682C225.224 110.628 225.467 111.674 225.467 112.821C225.467 113.882 225.259 114.849 224.844 115.724C224.442 116.584 223.883 117.322 223.167 117.938C222.45 118.554 221.59 119.027 220.587 119.357C219.583 119.687 218.494 119.852 217.319 119.852C216.301 119.852 215.341 119.73 214.438 119.486C213.979 119.773 213.628 120.081 213.384 120.411C213.141 120.726 213.019 121.048 213.019 121.378C213.019 121.894 213.227 122.288 213.642 122.561C214.072 122.819 214.631 123.005 215.319 123.12C216.007 123.234 216.788 123.306 217.663 123.335C218.551 123.363 219.454 123.413 220.372 123.485C221.303 123.542 222.206 123.65 223.081 123.808C223.969 123.965 224.758 124.223 225.446 124.582C226.134 124.94 226.686 125.434 227.101 126.065C227.531 126.696 227.746 127.513 227.746 128.516C227.746 129.448 227.51 130.351 227.037 131.225C226.578 132.099 225.912 132.873 225.037 133.547C224.163 134.235 223.088 134.78 221.812 135.181C220.551 135.597 219.125 135.805 217.534 135.805C215.943 135.805 214.552 135.647 213.363 135.332C212.173 135.016 211.184 134.593 210.396 134.063C209.607 133.533 209.013 132.916 208.611 132.214C208.224 131.526 208.031 130.802 208.031 130.043C208.031 128.968 208.368 128.057 209.041 127.312C209.715 126.567 210.639 125.972 211.815 125.528C211.17 125.241 210.654 124.861 210.267 124.388C209.894 123.901 209.708 123.249 209.708 122.432C209.708 122.116 209.765 121.794 209.88 121.464C209.994 121.12 210.166 120.783 210.396 120.454C210.639 120.11 210.933 119.787 211.277 119.486C211.621 119.185 212.023 118.92 212.481 118.691C211.406 118.089 210.568 117.293 209.966 116.304C209.364 115.301 209.063 114.14 209.063 112.821C209.063 111.76 209.263 110.8 209.665 109.94C210.08 109.066 210.654 108.328 211.385 107.726C212.116 107.109 212.983 106.636 213.986 106.307C215.004 105.977 216.115 105.812 217.319 105.812C218.265 105.812 219.146 105.92 219.963 106.135C220.78 106.335 221.526 106.636 222.199 107.038H228.112Z" fill="#0060A5;"/>
<path d="M303.08 147.768C302.908 148.083 302.643 148.241 302.284 148.241C302.069 148.241 301.826 148.162 301.553 148.005C301.281 147.847 300.944 147.675 300.543 147.489C300.156 147.288 299.69 147.109 299.145 146.951C298.601 146.779 297.956 146.693 297.21 146.693C296.565 146.693 295.985 146.779 295.469 146.951C294.953 147.109 294.508 147.331 294.136 147.618C293.777 147.904 293.498 148.241 293.297 148.628C293.111 149.001 293.018 149.409 293.018 149.854C293.018 150.413 293.175 150.878 293.491 151.251C293.82 151.624 294.25 151.946 294.781 152.219C295.311 152.491 295.913 152.735 296.587 152.95C297.26 153.15 297.948 153.372 298.651 153.616C299.367 153.845 300.063 154.103 300.736 154.39C301.41 154.677 302.012 155.035 302.542 155.465C303.073 155.895 303.495 156.425 303.811 157.056C304.14 157.672 304.305 158.418 304.305 159.292C304.305 160.295 304.126 161.227 303.768 162.087C303.409 162.933 302.879 163.671 302.177 164.302C301.474 164.918 300.614 165.405 299.597 165.764C298.579 166.122 297.404 166.301 296.071 166.301C294.551 166.301 293.175 166.057 291.943 165.57C290.71 165.068 289.664 164.431 288.804 163.657L289.707 162.195C289.821 162.008 289.958 161.865 290.115 161.765C290.273 161.664 290.474 161.614 290.717 161.614C290.975 161.614 291.248 161.714 291.534 161.915C291.821 162.116 292.165 162.338 292.566 162.582C292.982 162.825 293.484 163.047 294.071 163.248C294.659 163.449 295.39 163.549 296.264 163.549C297.01 163.549 297.662 163.456 298.221 163.27C298.78 163.069 299.246 162.804 299.618 162.474C299.991 162.144 300.263 161.765 300.435 161.335C300.622 160.905 300.715 160.446 300.715 159.959C300.715 159.357 300.55 158.862 300.22 158.475C299.905 158.074 299.482 157.737 298.952 157.465C298.421 157.178 297.812 156.934 297.124 156.734C296.451 156.519 295.755 156.296 295.039 156.067C294.336 155.838 293.641 155.58 292.953 155.293C292.28 154.992 291.678 154.619 291.147 154.175C290.617 153.731 290.187 153.186 289.857 152.541C289.542 151.882 289.384 151.086 289.384 150.155C289.384 149.323 289.556 148.528 289.9 147.768C290.244 146.994 290.746 146.32 291.405 145.747C292.065 145.159 292.874 144.694 293.835 144.35C294.795 144.006 295.892 143.834 297.124 143.834C298.558 143.834 299.84 144.063 300.973 144.522C302.119 144.966 303.108 145.582 303.94 146.371L303.08 147.768ZM313.039 144.178V165.957H309.212V144.178H313.039ZM313.856 137.341C313.856 137.713 313.777 138.064 313.62 138.394C313.476 138.709 313.276 138.996 313.018 139.254C312.774 139.498 312.48 139.691 312.136 139.835C311.807 139.978 311.455 140.05 311.083 140.05C310.71 140.05 310.359 139.978 310.029 139.835C309.714 139.691 309.434 139.498 309.191 139.254C308.947 138.996 308.754 138.709 308.61 138.394C308.467 138.064 308.395 137.713 308.395 137.341C308.395 136.968 308.467 136.617 308.61 136.287C308.754 135.943 308.947 135.649 309.191 135.406C309.434 135.148 309.714 134.947 310.029 134.804C310.359 134.66 310.71 134.589 311.083 134.589C311.455 134.589 311.807 134.66 312.136 134.804C312.48 134.947 312.774 135.148 313.018 135.406C313.276 135.649 313.476 135.943 313.62 136.287C313.777 136.617 313.856 136.968 313.856 137.341ZM319.327 165.957V144.178H321.628C322.173 144.178 322.509 144.443 322.638 144.973L322.918 147.209C323.721 146.22 324.624 145.41 325.627 144.78C326.63 144.149 327.791 143.834 329.11 143.834C330.572 143.834 331.754 144.242 332.657 145.059C333.575 145.876 334.234 146.98 334.635 148.37C334.951 147.582 335.352 146.901 335.839 146.328C336.341 145.754 336.9 145.281 337.516 144.909C338.133 144.536 338.785 144.264 339.473 144.092C340.175 143.92 340.885 143.834 341.601 143.834C342.748 143.834 343.766 144.02 344.654 144.393C345.557 144.751 346.317 145.281 346.933 145.984C347.564 146.686 348.044 147.553 348.374 148.585C348.704 149.603 348.868 150.771 348.868 152.09V165.957H345.02V152.09C345.02 150.384 344.647 149.094 343.902 148.22C343.157 147.331 342.082 146.887 340.677 146.887C340.046 146.887 339.444 147.001 338.871 147.231C338.312 147.446 337.817 147.768 337.387 148.198C336.957 148.628 336.613 149.173 336.355 149.832C336.112 150.477 335.99 151.23 335.99 152.09V165.957H332.141V152.09C332.141 150.341 331.79 149.037 331.088 148.177C330.386 147.317 329.361 146.887 328.013 146.887C327.067 146.887 326.193 147.145 325.39 147.661C324.588 148.162 323.85 148.85 323.176 149.725V165.957H319.327ZM358.533 160.711C359.236 161.657 360.002 162.324 360.834 162.711C361.665 163.098 362.597 163.291 363.629 163.291C365.664 163.291 367.226 162.567 368.316 161.12C369.405 159.672 369.95 157.608 369.95 154.928C369.95 153.509 369.821 152.29 369.563 151.273C369.319 150.255 368.961 149.424 368.488 148.779C368.015 148.119 367.434 147.639 366.746 147.338C366.058 147.037 365.277 146.887 364.403 146.887C363.156 146.887 362.059 147.173 361.113 147.747C360.182 148.32 359.322 149.13 358.533 150.176V160.711ZM358.34 147.553C359.257 146.421 360.318 145.511 361.522 144.823C362.726 144.135 364.102 143.791 365.65 143.791C366.911 143.791 368.051 144.034 369.068 144.522C370.086 144.995 370.953 145.704 371.67 146.65C372.386 147.582 372.938 148.743 373.325 150.133C373.712 151.523 373.906 153.122 373.906 154.928C373.906 156.533 373.691 158.031 373.261 159.421C372.831 160.797 372.207 161.994 371.39 163.012C370.588 164.015 369.599 164.81 368.423 165.398C367.262 165.971 365.951 166.258 364.489 166.258C363.156 166.258 362.009 166.036 361.049 165.592C360.103 165.133 359.264 164.502 358.533 163.7V173.332H354.685V144.178H356.985C357.53 144.178 357.867 144.443 357.996 144.973L358.34 147.553ZM382.744 134.288V165.957H378.917V134.288H382.744ZM403.527 152.692C403.527 151.803 403.398 150.993 403.14 150.262C402.897 149.517 402.531 148.879 402.044 148.349C401.571 147.804 400.99 147.388 400.302 147.102C399.614 146.801 398.833 146.65 397.959 146.65C396.124 146.65 394.669 147.188 393.594 148.263C392.534 149.323 391.874 150.8 391.616 152.692H403.527ZM406.623 162.904C406.15 163.477 405.584 163.979 404.925 164.409C404.266 164.825 403.556 165.169 402.796 165.441C402.051 165.713 401.277 165.914 400.474 166.043C399.672 166.186 398.876 166.258 398.088 166.258C396.583 166.258 395.193 166.007 393.917 165.506C392.656 164.99 391.559 164.244 390.627 163.27C389.71 162.281 388.993 161.062 388.477 159.615C387.961 158.167 387.703 156.504 387.703 154.627C387.703 153.107 387.933 151.688 388.391 150.37C388.864 149.051 389.538 147.911 390.412 146.951C391.287 145.976 392.355 145.217 393.616 144.672C394.877 144.113 396.296 143.834 397.873 143.834C399.177 143.834 400.381 144.056 401.485 144.5C402.603 144.93 403.563 145.561 404.366 146.392C405.183 147.209 405.821 148.227 406.279 149.445C406.738 150.649 406.967 152.025 406.967 153.573C406.967 154.175 406.903 154.576 406.774 154.777C406.645 154.978 406.401 155.078 406.043 155.078H391.487C391.53 156.454 391.717 157.651 392.046 158.669C392.39 159.686 392.863 160.539 393.465 161.227C394.067 161.901 394.784 162.41 395.615 162.754C396.447 163.083 397.378 163.248 398.41 163.248C399.371 163.248 400.195 163.141 400.883 162.926C401.585 162.696 402.187 162.453 402.689 162.195C403.191 161.937 403.606 161.7 403.936 161.485C404.28 161.256 404.574 161.141 404.817 161.141C405.133 161.141 405.376 161.263 405.548 161.507L406.623 162.904Z" fill="#811FCD"/>
<path d="M360.806 100.048C360.692 100.205 360.577 100.327 360.462 100.413C360.348 100.499 360.19 100.542 359.989 100.542C359.774 100.542 359.538 100.456 359.28 100.284C359.022 100.098 358.699 99.897 358.312 99.682C357.94 99.467 357.474 99.2735 356.915 99.1015C356.37 98.9152 355.696 98.822 354.894 98.822C353.819 98.822 352.873 99.0155 352.056 99.4025C351.239 99.7752 350.551 100.32 349.992 101.037C349.447 101.753 349.031 102.62 348.745 103.638C348.472 104.656 348.336 105.795 348.336 107.057C348.336 108.375 348.487 109.551 348.788 110.583C349.089 111.6 349.512 112.46 350.056 113.163C350.615 113.851 351.282 114.381 352.056 114.754C352.844 115.112 353.726 115.291 354.7 115.291C355.632 115.291 356.399 115.184 357.001 114.969C357.603 114.739 358.097 114.488 358.484 114.216C358.886 113.944 359.215 113.7 359.473 113.485C359.746 113.256 360.011 113.141 360.269 113.141C360.584 113.141 360.828 113.263 361 113.507L362.075 114.904C361.602 115.492 361.064 115.993 360.462 116.409C359.86 116.825 359.208 117.176 358.506 117.463C357.818 117.735 357.094 117.936 356.334 118.065C355.575 118.194 354.801 118.258 354.012 118.258C352.651 118.258 351.382 118.007 350.207 117.506C349.046 117.004 348.035 116.28 347.175 115.334C346.315 114.374 345.642 113.198 345.154 111.808C344.667 110.418 344.423 108.834 344.423 107.057C344.423 105.437 344.645 103.939 345.09 102.563C345.548 101.187 346.208 100.005 347.068 99.0155C347.942 98.0122 349.01 97.231 350.271 96.672C351.547 96.113 353.009 95.8335 354.657 95.8335C356.191 95.8335 357.538 96.0844 358.699 96.586C359.875 97.0734 360.914 97.7685 361.817 98.6715L360.806 100.048ZM370.139 86.2875V117.957H366.312V86.2875H370.139ZM390.922 104.692C390.922 103.803 390.793 102.993 390.535 102.262C390.291 101.517 389.926 100.879 389.438 100.349C388.965 99.8039 388.385 99.3882 387.697 99.1015C387.009 98.8005 386.228 98.65 385.353 98.65C383.519 98.65 382.064 99.1875 380.989 100.263C379.928 101.323 379.269 102.8 379.011 104.692H390.922ZM394.018 114.904C393.545 115.477 392.979 115.979 392.319 116.409C391.66 116.825 390.951 117.169 390.191 117.441C389.446 117.713 388.672 117.914 387.869 118.043C387.066 118.186 386.271 118.258 385.482 118.258C383.977 118.258 382.587 118.007 381.311 117.506C380.05 116.99 378.954 116.244 378.022 115.27C377.105 114.281 376.388 113.062 375.872 111.615C375.356 110.167 375.098 108.504 375.098 106.627C375.098 105.107 375.327 103.688 375.786 102.37C376.259 101.051 376.933 99.9114 377.807 98.951C378.681 97.9764 379.749 97.2167 381.01 96.672C382.272 96.113 383.691 95.8335 385.267 95.8335C386.572 95.8335 387.776 96.0557 388.879 96.5C389.997 96.93 390.958 97.5607 391.76 98.392C392.577 99.209 393.215 100.227 393.674 101.445C394.133 102.649 394.362 104.025 394.362 105.573C394.362 106.175 394.297 106.576 394.168 106.777C394.039 106.978 393.796 107.078 393.437 107.078H378.882C378.925 108.454 379.111 109.651 379.441 110.669C379.785 111.686 380.258 112.539 380.86 113.227C381.462 113.901 382.179 114.41 383.01 114.754C383.841 115.083 384.773 115.248 385.805 115.248C386.765 115.248 387.589 115.141 388.277 114.926C388.98 114.696 389.582 114.453 390.083 114.195C390.585 113.937 391.001 113.7 391.33 113.485C391.674 113.256 391.968 113.141 392.212 113.141C392.527 113.141 392.771 113.263 392.943 113.507L394.018 114.904ZM410.866 108.153C409.103 108.21 407.598 108.354 406.351 108.583C405.119 108.798 404.108 109.085 403.32 109.443C402.546 109.801 401.98 110.224 401.621 110.712C401.277 111.199 401.105 111.744 401.105 112.346C401.105 112.919 401.198 113.413 401.385 113.829C401.571 114.245 401.822 114.589 402.137 114.861C402.467 115.119 402.847 115.313 403.277 115.442C403.721 115.556 404.194 115.614 404.696 115.614C405.369 115.614 405.986 115.549 406.545 115.42C407.104 115.277 407.627 115.076 408.114 114.818C408.616 114.56 409.089 114.252 409.533 113.894C409.992 113.535 410.436 113.127 410.866 112.668V108.153ZM398.504 99.252C399.708 98.091 401.005 97.2239 402.395 96.6505C403.786 96.0772 405.326 95.7905 407.018 95.7905C408.236 95.7905 409.318 95.9912 410.264 96.3925C411.21 96.7939 412.006 97.3529 412.651 98.0695C413.296 98.7862 413.783 99.6534 414.113 100.671C414.442 101.689 414.607 102.807 414.607 104.025V117.957H412.909C412.536 117.957 412.249 117.9 412.049 117.785C411.848 117.656 411.69 117.412 411.576 117.054L411.146 114.99C410.572 115.52 410.013 115.993 409.469 116.409C408.924 116.81 408.351 117.154 407.749 117.441C407.147 117.713 406.502 117.921 405.814 118.065C405.14 118.222 404.388 118.301 403.556 118.301C402.711 118.301 401.915 118.186 401.17 117.957C400.424 117.713 399.772 117.355 399.213 116.882C398.669 116.409 398.231 115.814 397.902 115.098C397.586 114.367 397.429 113.507 397.429 112.518C397.429 111.658 397.665 110.833 398.138 110.045C398.611 109.242 399.378 108.533 400.439 107.917C401.499 107.3 402.883 106.799 404.588 106.412C406.294 106.01 408.387 105.781 410.866 105.724V104.025C410.866 102.334 410.501 101.058 409.77 100.198C409.039 99.3237 407.971 98.8865 406.566 98.8865C405.62 98.8865 404.825 99.0084 404.18 99.252C403.549 99.4814 402.997 99.7465 402.524 100.048C402.066 100.334 401.664 100.599 401.32 100.843C400.991 101.072 400.661 101.187 400.331 101.187C400.073 101.187 399.851 101.123 399.665 100.994C399.478 100.85 399.321 100.678 399.192 100.478L398.504 99.252ZM424.049 99.338C424.522 98.8077 425.023 98.3275 425.554 97.8975C426.084 97.4675 426.643 97.102 427.231 96.801C427.833 96.4857 428.463 96.2492 429.123 96.0915C429.796 95.9195 430.52 95.8335 431.294 95.8335C432.484 95.8335 433.53 96.0342 434.433 96.4355C435.351 96.8225 436.11 97.3815 436.712 98.1125C437.329 98.8292 437.794 99.6964 438.11 100.714C438.425 101.732 438.583 102.857 438.583 104.09V117.957H434.734V104.09C434.734 102.441 434.354 101.166 433.595 100.263C432.849 99.3452 431.71 98.8865 430.176 98.8865C429.044 98.8865 427.983 99.1589 426.994 99.7035C426.02 100.248 425.117 100.986 424.285 101.918V117.957H420.437V96.1775H422.737C423.282 96.1775 423.619 96.4427 423.748 96.973L424.049 99.338Z" fill="#14AE5C"/>
<path d="M5.37091 43.957V25.4455L2.96291 25.166C2.66191 25.0944 2.41108 24.9869 2.21041 24.8435C2.02408 24.6859 1.93091 24.4637 1.93091 24.177V22.6075H5.37091V20.5005C5.37091 19.2535 5.54291 18.1499 5.88691 17.1895C6.24524 16.2149 6.74691 15.3979 7.39191 14.7385C8.05124 14.0649 8.83958 13.556 9.75691 13.212C10.6742 12.868 11.7062 12.696 12.8529 12.696C13.8276 12.696 14.7234 12.8394 15.5404 13.126L15.4544 15.0395C15.4257 15.3835 15.2322 15.5699 14.8739 15.5985C14.5299 15.6272 14.0641 15.6415 13.4764 15.6415C12.8171 15.6415 12.2151 15.7275 11.6704 15.8995C11.1401 16.0715 10.6814 16.351 10.2944 16.738C9.90741 17.125 9.60641 17.6339 9.39141 18.2645C9.19074 18.8952 9.09041 19.6764 9.09041 20.608V22.6075H15.3684V25.381H9.21941V43.957H5.37091ZM22.6606 26.542C23.3486 25.0514 24.1943 23.8904 25.1976 23.059C26.2009 22.2134 27.4264 21.7905 28.8741 21.7905C29.3328 21.7905 29.7699 21.8407 30.1856 21.941C30.6156 22.0414 30.9954 22.199 31.3251 22.414L31.0456 25.2735C30.9596 25.6319 30.7446 25.811 30.4006 25.811C30.1999 25.811 29.9061 25.768 29.5191 25.682C29.1321 25.596 28.6949 25.553 28.2076 25.553C27.5196 25.553 26.9033 25.6534 26.3586 25.854C25.8283 26.0547 25.3481 26.3557 24.9181 26.757C24.5024 27.144 24.1226 27.6314 23.7786 28.219C23.4489 28.7924 23.1479 29.4517 22.8756 30.197V43.957H19.0271V22.1775H21.2201C21.6358 22.1775 21.9224 22.2564 22.0801 22.414C22.2378 22.5717 22.3453 22.844 22.4026 23.231L22.6606 26.542ZM38.7322 22.1775V43.957H34.9052V22.1775H38.7322ZM39.5492 15.3405C39.5492 15.7132 39.4704 16.0644 39.3127 16.394C39.1694 16.7094 38.9687 16.996 38.7107 17.254C38.467 17.4977 38.1732 17.6912 37.8292 17.8345C37.4995 17.9779 37.1484 18.0495 36.7757 18.0495C36.403 18.0495 36.0519 17.9779 35.7222 17.8345C35.4069 17.6912 35.1274 17.4977 34.8837 17.254C34.64 16.996 34.4465 16.7094 34.3032 16.394C34.1599 16.0644 34.0882 15.7132 34.0882 15.3405C34.0882 14.9679 34.1599 14.6167 34.3032 14.287C34.4465 13.943 34.64 13.6492 34.8837 13.4055C35.1274 13.1475 35.4069 12.9469 35.7222 12.8035C36.0519 12.6602 36.403 12.5885 36.7757 12.5885C37.1484 12.5885 37.4995 12.6602 37.8292 12.8035C38.1732 12.9469 38.467 13.1475 38.7107 13.4055C38.9687 13.6492 39.1694 13.943 39.3127 14.287C39.4704 14.6167 39.5492 14.9679 39.5492 15.3405ZM59.5973 30.6915C59.5973 29.8029 59.4683 28.993 59.2103 28.262C58.9666 27.5167 58.6011 26.8789 58.1138 26.3485C57.6408 25.8039 57.0603 25.3882 56.3723 25.1015C55.6843 24.8005 54.9031 24.65 54.0288 24.65C52.1941 24.65 50.7393 25.1875 49.6643 26.2625C48.6036 27.3232 47.9443 28.7995 47.6863 30.6915H59.5973ZM62.6933 40.904C62.2203 41.4774 61.6541 41.979 60.9948 42.409C60.3354 42.8247 59.6259 43.1687 58.8663 43.441C58.1209 43.7134 57.3469 43.914 56.5443 44.043C55.7416 44.1864 54.9461 44.258 54.1578 44.258C52.6528 44.258 51.2624 44.0072 49.9868 43.5055C48.7254 42.9895 47.6289 42.2442 46.6973 41.2695C45.7799 40.2805 45.0633 39.0622 44.5473 37.6145C44.0313 36.1669 43.7733 34.5042 43.7733 32.6265C43.7733 31.1072 44.0026 29.6882 44.4613 28.3695C44.9343 27.0509 45.6079 25.9114 46.4823 24.951C47.3566 23.9764 48.4244 23.2167 49.6858 22.672C50.9471 22.113 52.3661 21.8335 53.9428 21.8335C55.2471 21.8335 56.4511 22.0557 57.5548 22.5C58.6728 22.93 59.6331 23.5607 60.4358 24.392C61.2528 25.209 61.8906 26.2267 62.3493 27.445C62.8079 28.649 63.0373 30.025 63.0373 31.573C63.0373 32.175 62.9728 32.5764 62.8438 32.777C62.7148 32.9777 62.4711 33.078 62.1128 33.078H47.5573C47.6003 34.454 47.7866 35.6509 48.1163 36.6685C48.4603 37.6862 48.9333 38.539 49.5353 39.227C50.1373 39.9007 50.8539 40.4095 51.6853 40.7535C52.5166 41.0832 53.4483 41.248 54.4803 41.248C55.4406 41.248 56.2648 41.1405 56.9528 40.9255C57.6551 40.6962 58.2571 40.4525 58.7588 40.1945C59.2604 39.9365 59.6761 39.7 60.0058 39.485C60.3498 39.2557 60.6436 39.141 60.8873 39.141C61.2026 39.141 61.4463 39.2629 61.6183 39.5065L62.6933 40.904ZM71.35 25.338C71.823 24.8077 72.3247 24.3275 72.855 23.8975C73.3854 23.4675 73.9444 23.102 74.532 22.801C75.134 22.4857 75.7647 22.2492 76.424 22.0915C77.0977 21.9195 77.8215 21.8335 78.5955 21.8335C79.7852 21.8335 80.8315 22.0342 81.7345 22.4355C82.6519 22.8225 83.4115 23.3815 84.0135 24.1125C84.6299 24.8292 85.0957 25.6964 85.411 26.714C85.7264 27.7317 85.884 28.8569 85.884 30.0895V43.957H82.0355V30.0895C82.0355 28.4412 81.6557 27.1655 80.896 26.2625C80.1507 25.3452 79.0112 24.8865 77.4775 24.8865C76.3452 24.8865 75.2845 25.1589 74.2955 25.7035C73.3209 26.2482 72.4179 26.9864 71.5865 27.918V43.957H67.738V22.1775H70.0385C70.5832 22.1775 70.92 22.4427 71.049 22.973L71.35 25.338ZM105.906 27.359C105.189 26.3987 104.415 25.7322 103.584 25.3595C102.752 24.9725 101.821 24.779 100.789 24.779C98.7676 24.779 97.2124 25.5029 96.1231 26.9505C95.0337 28.3982 94.4891 30.4622 94.4891 33.1425C94.4891 34.5615 94.6109 35.7799 94.8546 36.7975C95.0982 37.8009 95.4566 38.6322 95.9296 39.2915C96.4026 39.9365 96.9831 40.4095 97.6711 40.7105C98.3591 41.0115 99.1402 41.162 100.015 41.162C101.276 41.162 102.372 40.8754 103.304 40.302C104.25 39.7287 105.117 38.9189 105.906 37.8725V27.359ZM109.733 12.2875V43.957H107.454C106.909 43.957 106.565 43.6919 106.422 43.1615L106.078 40.517C105.146 41.635 104.085 42.538 102.896 43.226C101.706 43.914 100.33 44.258 98.7676 44.258C97.5206 44.258 96.3882 44.0215 95.3706 43.5485C94.3529 43.0612 93.4857 42.3517 92.7691 41.42C92.0524 40.4884 91.5006 39.3274 91.1136 37.937C90.7266 36.5467 90.5331 34.9485 90.5331 33.1425C90.5331 31.5372 90.7481 30.0465 91.1781 28.6705C91.6081 27.2802 92.2244 26.0762 93.0271 25.0585C93.8297 24.0409 94.8116 23.2454 95.9726 22.672C97.1479 22.0844 98.4666 21.7905 99.9286 21.7905C101.262 21.7905 102.401 22.0199 103.347 22.4785C104.307 22.9229 105.16 23.5464 105.906 24.349V12.2875H109.733ZM119.733 12.2875V43.957H115.906V12.2875H119.733ZM144.73 22.1775L132.583 50.3855C132.454 50.6722 132.289 50.9015 132.088 51.0735C131.902 51.2455 131.608 51.3315 131.207 51.3315H128.369L132.346 42.6885L123.359 22.1775H126.67C127 22.1775 127.258 22.2635 127.444 22.4355C127.645 22.5932 127.781 22.7724 127.853 22.973L133.679 36.69C133.909 37.292 134.102 37.9227 134.26 38.582C134.46 37.9084 134.675 37.2705 134.905 36.6685L140.559 22.973C140.645 22.7437 140.789 22.5574 140.989 22.414C141.204 22.2564 141.441 22.1775 141.699 22.1775H144.73Z" fill="#0060A5;"/>
</svg>
