<svg width="610" height="209" viewBox="0 0 610 209" fill="none" xmlns="http://www.w3.org/2000/svg">
<rect x="126" y="70.957" width="374" height="68" rx="5" fill="#A5CAE4"/>
<path d="M191.735 97.881H201.525V99.861H193.847V104.745H200.997V106.725H193.847V113.457H191.735V97.881ZM204.368 97.881H206.48V113.457H204.368V97.881ZM210.491 97.881H213.263L221.843 110.685H221.887V97.881H223.999V113.457H221.315L212.647 100.653H212.603V113.457H210.491V97.881ZM227.649 97.881H233.083C234.183 97.881 235.144 98.0057 235.965 98.255C236.801 98.5044 237.52 98.8417 238.121 99.267C238.737 99.6777 239.243 100.154 239.639 100.697C240.05 101.24 240.372 101.797 240.607 102.369C240.842 102.941 241.01 103.513 241.113 104.085C241.216 104.657 241.267 105.185 241.267 105.669C241.267 106.666 241.084 107.634 240.717 108.573C240.35 109.497 239.808 110.326 239.089 111.059C238.37 111.778 237.476 112.357 236.405 112.797C235.349 113.237 234.124 113.457 232.731 113.457H227.649V97.881ZM229.761 111.477H232.423C233.318 111.477 234.161 111.36 234.953 111.125C235.76 110.876 236.464 110.509 237.065 110.025C237.666 109.541 238.143 108.94 238.495 108.221C238.847 107.488 239.023 106.637 239.023 105.669C239.023 105.17 238.942 104.591 238.781 103.931C238.62 103.256 238.312 102.618 237.857 102.017C237.417 101.416 236.801 100.91 236.009 100.499C235.217 100.074 234.19 99.861 232.929 99.861H229.761V111.477ZM255.315 97.881H257.229L263.895 113.457H261.431L259.869 109.607H252.455L250.915 113.457H248.451L255.315 97.881ZM259.099 107.759L256.195 100.609H256.151L253.203 107.759H259.099ZM272.044 97.881H274.816L283.396 110.685H283.44V97.881H285.552V113.457H282.868L274.2 100.653H274.156V113.457H272.044V97.881ZM289.554 97.881H299.608V99.861H291.666V104.503H299.058V106.483H291.666V111.477H300.004V113.457H289.554V97.881ZM301.023 97.881H303.223L306.655 110.333H306.699L310.373 97.881H312.793L316.467 110.333H316.511L319.943 97.881H322.143L317.611 113.457H315.389L311.605 100.741H311.561L307.799 113.457H305.577L301.023 97.881ZM330.288 97.881H335.766C336.763 97.881 337.585 98.0204 338.23 98.299C338.875 98.563 339.381 98.9077 339.748 99.333C340.129 99.7437 340.393 100.213 340.54 100.741C340.687 101.254 340.76 101.753 340.76 102.237C340.76 102.721 340.687 103.227 340.54 103.755C340.393 104.268 340.129 104.738 339.748 105.163C339.381 105.574 338.875 105.918 338.23 106.197C337.585 106.461 336.763 106.593 335.766 106.593H332.4V113.457H330.288V97.881ZM332.4 104.745H335.172C335.583 104.745 335.986 104.716 336.382 104.657C336.793 104.584 337.152 104.459 337.46 104.283C337.783 104.107 338.039 103.858 338.23 103.535C338.421 103.198 338.516 102.765 338.516 102.237C338.516 101.709 338.421 101.284 338.23 100.961C338.039 100.624 337.783 100.367 337.46 100.191C337.152 100.015 336.793 99.8977 336.382 99.839C335.986 99.7657 335.583 99.729 335.172 99.729H332.4V104.745ZM343.329 97.881H348.807C349.804 97.881 350.626 98.0204 351.271 98.299C351.916 98.563 352.422 98.9077 352.789 99.333C353.17 99.7437 353.434 100.213 353.581 100.741C353.728 101.254 353.801 101.753 353.801 102.237C353.801 102.736 353.713 103.22 353.537 103.689C353.361 104.144 353.104 104.562 352.767 104.943C352.444 105.31 352.041 105.625 351.557 105.889C351.088 106.138 350.56 106.292 349.973 106.351L354.395 113.457H351.755L347.795 106.593H345.441V113.457H343.329V97.881ZM345.441 104.745H348.213C348.624 104.745 349.027 104.716 349.423 104.657C349.834 104.584 350.193 104.459 350.501 104.283C350.824 104.107 351.08 103.858 351.271 103.535C351.462 103.198 351.557 102.765 351.557 102.237C351.557 101.709 351.462 101.284 351.271 100.961C351.08 100.624 350.824 100.367 350.501 100.191C350.193 100.015 349.834 99.8977 349.423 99.839C349.027 99.7657 348.624 99.729 348.213 99.729H345.441V104.745ZM363.928 113.853C362.74 113.853 361.648 113.648 360.65 113.237C359.653 112.812 358.795 112.232 358.076 111.499C357.372 110.766 356.815 109.9 356.404 108.903C356.008 107.906 355.81 106.828 355.81 105.669C355.81 104.51 356.008 103.432 356.404 102.435C356.815 101.438 357.372 100.572 358.076 99.839C358.795 99.1057 359.653 98.5337 360.65 98.123C361.648 97.6977 362.74 97.485 363.928 97.485C365.116 97.485 366.209 97.6977 367.206 98.123C368.204 98.5337 369.054 99.1057 369.758 99.839C370.477 100.572 371.034 101.438 371.43 102.435C371.841 103.432 372.046 104.51 372.046 105.669C372.046 106.828 371.841 107.906 371.43 108.903C371.034 109.9 370.477 110.766 369.758 111.499C369.054 112.232 368.204 112.812 367.206 113.237C366.209 113.648 365.116 113.853 363.928 113.853ZM363.928 111.873C364.823 111.873 365.63 111.712 366.348 111.389C367.067 111.052 367.683 110.604 368.196 110.047C368.71 109.49 369.106 108.837 369.384 108.089C369.663 107.326 369.802 106.52 369.802 105.669C369.802 104.818 369.663 104.019 369.384 103.271C369.106 102.508 368.71 101.848 368.196 101.291C367.683 100.734 367.067 100.294 366.348 99.971C365.63 99.6337 364.823 99.465 363.928 99.465C363.034 99.465 362.227 99.6337 361.508 99.971C360.79 100.294 360.174 100.734 359.66 101.291C359.147 101.848 358.751 102.508 358.472 103.271C358.194 104.019 358.054 104.818 358.054 105.669C358.054 106.52 358.194 107.326 358.472 108.089C358.751 108.837 359.147 109.49 359.66 110.047C360.174 110.604 360.79 111.052 361.508 111.389C362.227 111.712 363.034 111.873 363.928 111.873ZM372.949 97.881H375.391L379.967 110.553H380.011L384.763 97.881H387.073L380.935 113.457H378.955L372.949 97.881ZM388.94 97.881H391.052V113.457H388.94V97.881ZM394.712 97.881H400.146C401.246 97.881 402.206 98.0057 403.028 98.255C403.864 98.5044 404.582 98.8417 405.184 99.267C405.8 99.6777 406.306 100.154 406.702 100.697C407.112 101.24 407.435 101.797 407.67 102.369C407.904 102.941 408.073 103.513 408.176 104.085C408.278 104.657 408.33 105.185 408.33 105.669C408.33 106.666 408.146 107.634 407.78 108.573C407.413 109.497 406.87 110.326 406.152 111.059C405.433 111.778 404.538 112.357 403.468 112.797C402.412 113.237 401.187 113.457 399.794 113.457H394.712V97.881ZM396.824 111.477H399.486C400.38 111.477 401.224 111.36 402.016 111.125C402.822 110.876 403.526 110.509 404.128 110.025C404.729 109.541 405.206 108.94 405.558 108.221C405.91 107.488 406.086 106.637 406.086 105.669C406.086 105.17 406.005 104.591 405.844 103.931C405.682 103.256 405.374 102.618 404.92 102.017C404.48 101.416 403.864 100.91 403.072 100.499C402.28 100.074 401.253 99.861 399.992 99.861H396.824V111.477ZM411.37 97.881H421.424V99.861H413.482V104.503H420.874V106.483H413.482V111.477H421.82V113.457H411.37V97.881ZM424.819 97.881H430.297C431.295 97.881 432.116 98.0204 432.761 98.299C433.407 98.563 433.913 98.9077 434.279 99.333C434.661 99.7437 434.925 100.213 435.071 100.741C435.218 101.254 435.291 101.753 435.291 102.237C435.291 102.736 435.203 103.22 435.027 103.689C434.851 104.144 434.595 104.562 434.257 104.943C433.935 105.31 433.531 105.625 433.047 105.889C432.578 106.138 432.05 106.292 431.463 106.351L435.885 113.457H433.245L429.285 106.593H426.931V113.457H424.819V97.881ZM426.931 104.745H429.703C430.114 104.745 430.517 104.716 430.913 104.657C431.324 104.584 431.683 104.459 431.991 104.283C432.314 104.107 432.571 103.858 432.761 103.535C432.952 103.198 433.047 102.765 433.047 102.237C433.047 101.709 432.952 101.284 432.761 100.961C432.571 100.624 432.314 100.367 431.991 100.191C431.683 100.015 431.324 99.8977 430.913 99.839C430.517 99.7657 430.114 99.729 429.703 99.729H426.931V104.745Z" fill="#141414"/>
<g clip-path="url(#clip0_484_1540)">
<rect x="78" y="104.957" width="48" height="1" fill="#0060A5;"/>
<g clip-path="url(#clip1_484_1540)">
<rect x="78" y="92.957" width="24" height="24" rx="12" fill="#0060A5;"/>
<path d="M91.1825 100.23V108.957H90.1257V101.338H90.0746L87.9439 102.752V101.679L90.1257 100.23H91.1825Z" fill="white"/>
</g>
</g>
<g clip-path="url(#clip2_484_1540)">
<rect x="313.81" y="113.854" width="1" height="73.104" fill="#0060A5;"/>
<g clip-path="url(#clip3_484_1540)">
<rect x="301.81" y="162.957" width="24" height="24" rx="12" fill="#0060A5;"/>
<path d="M311.081 178.957V178.19L313.962 175.037C314.3 174.667 314.578 174.346 314.797 174.074C315.016 173.798 315.177 173.539 315.283 173.298C315.391 173.054 315.445 172.798 315.445 172.531C315.445 172.224 315.371 171.958 315.223 171.734C315.078 171.51 314.879 171.336 314.626 171.214C314.374 171.092 314.089 171.031 313.774 171.031C313.439 171.031 313.146 171.1 312.896 171.24C312.649 171.376 312.457 171.568 312.321 171.815C312.187 172.062 312.121 172.352 312.121 172.684H311.115C311.115 172.173 311.233 171.724 311.469 171.338C311.704 170.951 312.026 170.65 312.432 170.434C312.841 170.218 313.3 170.11 313.808 170.11C314.32 170.11 314.773 170.218 315.168 170.434C315.562 170.65 315.872 170.941 316.097 171.308C316.321 171.674 316.433 172.082 316.433 172.531C316.433 172.852 316.375 173.166 316.258 173.473C316.145 173.777 315.946 174.116 315.662 174.491C315.381 174.863 314.99 175.318 314.49 175.855L312.53 177.951V178.02H316.587V178.957H311.081Z" fill="white"/>
</g>
</g>
<defs>
<clipPath id="clip0_484_1540">
<rect width="48" height="24" fill="white" transform="translate(78 92.957)"/>
</clipPath>
<clipPath id="clip1_484_1540">
<rect x="78" y="92.957" width="24" height="24" rx="12" fill="white"/>
</clipPath>
<clipPath id="clip2_484_1540">
<rect width="24" height="73.104" fill="white" transform="translate(301.81 113.854)"/>
</clipPath>
<clipPath id="clip3_484_1540">
<rect x="301.81" y="162.957" width="24" height="24" rx="12" fill="white"/>
</clipPath>
</defs>
</svg>
