<svg width="625" height="269" viewBox="0 0 625 269" fill="none" xmlns="http://www.w3.org/2000/svg">
<g opacity="0.2">
<rect x="126" y="100.957" width="374" height="68" rx="5" fill="#A5CAE4"/>
<path d="M191.735 127.881H201.525V129.861H193.847V134.745H200.997V136.725H193.847V143.457H191.735V127.881ZM204.368 127.881H206.48V143.457H204.368V127.881ZM210.491 127.881H213.263L221.843 140.685H221.887V127.881H223.999V143.457H221.315L212.647 130.653H212.603V143.457H210.491V127.881ZM227.649 127.881H233.083C234.183 127.881 235.144 128.006 235.965 128.255C236.801 128.504 237.52 128.842 238.121 129.267C238.737 129.678 239.243 130.154 239.639 130.697C240.05 131.24 240.372 131.797 240.607 132.369C240.842 132.941 241.01 133.513 241.113 134.085C241.216 134.657 241.267 135.185 241.267 135.669C241.267 136.666 241.084 137.634 240.717 138.573C240.35 139.497 239.808 140.326 239.089 141.059C238.37 141.778 237.476 142.357 236.405 142.797C235.349 143.237 234.124 143.457 232.731 143.457H227.649V127.881ZM229.761 141.477H232.423C233.318 141.477 234.161 141.36 234.953 141.125C235.76 140.876 236.464 140.509 237.065 140.025C237.666 139.541 238.143 138.94 238.495 138.221C238.847 137.488 239.023 136.637 239.023 135.669C239.023 135.17 238.942 134.591 238.781 133.931C238.62 133.256 238.312 132.618 237.857 132.017C237.417 131.416 236.801 130.91 236.009 130.499C235.217 130.074 234.19 129.861 232.929 129.861H229.761V141.477ZM255.315 127.881H257.229L263.895 143.457H261.431L259.869 139.607H252.455L250.915 143.457H248.451L255.315 127.881ZM259.099 137.759L256.195 130.609H256.151L253.203 137.759H259.099ZM272.044 127.881H274.816L283.396 140.685H283.44V127.881H285.552V143.457H282.868L274.2 130.653H274.156V143.457H272.044V127.881ZM289.554 127.881H299.608V129.861H291.666V134.503H299.058V136.483H291.666V141.477H300.004V143.457H289.554V127.881ZM301.023 127.881H303.223L306.655 140.333H306.699L310.373 127.881H312.793L316.467 140.333H316.511L319.943 127.881H322.143L317.611 143.457H315.389L311.605 130.741H311.561L307.799 143.457H305.577L301.023 127.881ZM330.288 127.881H335.766C336.763 127.881 337.585 128.02 338.23 128.299C338.875 128.563 339.381 128.908 339.748 129.333C340.129 129.744 340.393 130.213 340.54 130.741C340.687 131.254 340.76 131.753 340.76 132.237C340.76 132.721 340.687 133.227 340.54 133.755C340.393 134.268 340.129 134.738 339.748 135.163C339.381 135.574 338.875 135.918 338.23 136.197C337.585 136.461 336.763 136.593 335.766 136.593H332.4V143.457H330.288V127.881ZM332.4 134.745H335.172C335.583 134.745 335.986 134.716 336.382 134.657C336.793 134.584 337.152 134.459 337.46 134.283C337.783 134.107 338.039 133.858 338.23 133.535C338.421 133.198 338.516 132.765 338.516 132.237C338.516 131.709 338.421 131.284 338.23 130.961C338.039 130.624 337.783 130.367 337.46 130.191C337.152 130.015 336.793 129.898 336.382 129.839C335.986 129.766 335.583 129.729 335.172 129.729H332.4V134.745ZM343.329 127.881H348.807C349.804 127.881 350.626 128.02 351.271 128.299C351.916 128.563 352.422 128.908 352.789 129.333C353.17 129.744 353.434 130.213 353.581 130.741C353.728 131.254 353.801 131.753 353.801 132.237C353.801 132.736 353.713 133.22 353.537 133.689C353.361 134.144 353.104 134.562 352.767 134.943C352.444 135.31 352.041 135.625 351.557 135.889C351.088 136.138 350.56 136.292 349.973 136.351L354.395 143.457H351.755L347.795 136.593H345.441V143.457H343.329V127.881ZM345.441 134.745H348.213C348.624 134.745 349.027 134.716 349.423 134.657C349.834 134.584 350.193 134.459 350.501 134.283C350.824 134.107 351.08 133.858 351.271 133.535C351.462 133.198 351.557 132.765 351.557 132.237C351.557 131.709 351.462 131.284 351.271 130.961C351.08 130.624 350.824 130.367 350.501 130.191C350.193 130.015 349.834 129.898 349.423 129.839C349.027 129.766 348.624 129.729 348.213 129.729H345.441V134.745ZM363.928 143.853C362.74 143.853 361.648 143.648 360.65 143.237C359.653 142.812 358.795 142.232 358.076 141.499C357.372 140.766 356.815 139.9 356.404 138.903C356.008 137.906 355.81 136.828 355.81 135.669C355.81 134.51 356.008 133.432 356.404 132.435C356.815 131.438 357.372 130.572 358.076 129.839C358.795 129.106 359.653 128.534 360.65 128.123C361.648 127.698 362.74 127.485 363.928 127.485C365.116 127.485 366.209 127.698 367.206 128.123C368.204 128.534 369.054 129.106 369.758 129.839C370.477 130.572 371.034 131.438 371.43 132.435C371.841 133.432 372.046 134.51 372.046 135.669C372.046 136.828 371.841 137.906 371.43 138.903C371.034 139.9 370.477 140.766 369.758 141.499C369.054 142.232 368.204 142.812 367.206 143.237C366.209 143.648 365.116 143.853 363.928 143.853ZM363.928 141.873C364.823 141.873 365.63 141.712 366.348 141.389C367.067 141.052 367.683 140.604 368.196 140.047C368.71 139.49 369.106 138.837 369.384 138.089C369.663 137.326 369.802 136.52 369.802 135.669C369.802 134.818 369.663 134.019 369.384 133.271C369.106 132.508 368.71 131.848 368.196 131.291C367.683 130.734 367.067 130.294 366.348 129.971C365.63 129.634 364.823 129.465 363.928 129.465C363.034 129.465 362.227 129.634 361.508 129.971C360.79 130.294 360.174 130.734 359.66 131.291C359.147 131.848 358.751 132.508 358.472 133.271C358.194 134.019 358.054 134.818 358.054 135.669C358.054 136.52 358.194 137.326 358.472 138.089C358.751 138.837 359.147 139.49 359.66 140.047C360.174 140.604 360.79 141.052 361.508 141.389C362.227 141.712 363.034 141.873 363.928 141.873ZM372.949 127.881H375.391L379.967 140.553H380.011L384.763 127.881H387.073L380.935 143.457H378.955L372.949 127.881ZM388.94 127.881H391.052V143.457H388.94V127.881ZM394.712 127.881H400.146C401.246 127.881 402.206 128.006 403.028 128.255C403.864 128.504 404.582 128.842 405.184 129.267C405.8 129.678 406.306 130.154 406.702 130.697C407.112 131.24 407.435 131.797 407.67 132.369C407.904 132.941 408.073 133.513 408.176 134.085C408.278 134.657 408.33 135.185 408.33 135.669C408.33 136.666 408.146 137.634 407.78 138.573C407.413 139.497 406.87 140.326 406.152 141.059C405.433 141.778 404.538 142.357 403.468 142.797C402.412 143.237 401.187 143.457 399.794 143.457H394.712V127.881ZM396.824 141.477H399.486C400.38 141.477 401.224 141.36 402.016 141.125C402.822 140.876 403.526 140.509 404.128 140.025C404.729 139.541 405.206 138.94 405.558 138.221C405.91 137.488 406.086 136.637 406.086 135.669C406.086 135.17 406.005 134.591 405.844 133.931C405.682 133.256 405.374 132.618 404.92 132.017C404.48 131.416 403.864 130.91 403.072 130.499C402.28 130.074 401.253 129.861 399.992 129.861H396.824V141.477ZM411.37 127.881H421.424V129.861H413.482V134.503H420.874V136.483H413.482V141.477H421.82V143.457H411.37V127.881ZM424.819 127.881H430.297C431.295 127.881 432.116 128.02 432.761 128.299C433.407 128.563 433.913 128.908 434.279 129.333C434.661 129.744 434.925 130.213 435.071 130.741C435.218 131.254 435.291 131.753 435.291 132.237C435.291 132.736 435.203 133.22 435.027 133.689C434.851 134.144 434.595 134.562 434.257 134.943C433.935 135.31 433.531 135.625 433.047 135.889C432.578 136.138 432.05 136.292 431.463 136.351L435.885 143.457H433.245L429.285 136.593H426.931V143.457H424.819V127.881ZM426.931 134.745H429.703C430.114 134.745 430.517 134.716 430.913 134.657C431.324 134.584 431.683 134.459 431.991 134.283C432.314 134.107 432.571 133.858 432.761 133.535C432.952 133.198 433.047 132.765 433.047 132.237C433.047 131.709 432.952 131.284 432.761 130.961C432.571 130.624 432.314 130.367 431.991 130.191C431.683 130.015 431.324 129.898 430.913 129.839C430.517 129.766 430.114 129.729 429.703 129.729H426.931V134.745Z" fill="#141414"/>
</g>
<g opacity="0.2">
<rect x="126" y="100.957" width="374" height="68" rx="5" fill="#A5CAE4"/>
<path d="M191.735 127.881H201.525V129.861H193.847V134.745H200.997V136.725H193.847V143.457H191.735V127.881ZM204.368 127.881H206.48V143.457H204.368V127.881ZM210.491 127.881H213.263L221.843 140.685H221.887V127.881H223.999V143.457H221.315L212.647 130.653H212.603V143.457H210.491V127.881ZM227.649 127.881H233.083C234.183 127.881 235.144 128.006 235.965 128.255C236.801 128.504 237.52 128.842 238.121 129.267C238.737 129.678 239.243 130.154 239.639 130.697C240.05 131.24 240.372 131.797 240.607 132.369C240.842 132.941 241.01 133.513 241.113 134.085C241.216 134.657 241.267 135.185 241.267 135.669C241.267 136.666 241.084 137.634 240.717 138.573C240.35 139.497 239.808 140.326 239.089 141.059C238.37 141.778 237.476 142.357 236.405 142.797C235.349 143.237 234.124 143.457 232.731 143.457H227.649V127.881ZM229.761 141.477H232.423C233.318 141.477 234.161 141.36 234.953 141.125C235.76 140.876 236.464 140.509 237.065 140.025C237.666 139.541 238.143 138.94 238.495 138.221C238.847 137.488 239.023 136.637 239.023 135.669C239.023 135.17 238.942 134.591 238.781 133.931C238.62 133.256 238.312 132.618 237.857 132.017C237.417 131.416 236.801 130.91 236.009 130.499C235.217 130.074 234.19 129.861 232.929 129.861H229.761V141.477ZM255.315 127.881H257.229L263.895 143.457H261.431L259.869 139.607H252.455L250.915 143.457H248.451L255.315 127.881ZM259.099 137.759L256.195 130.609H256.151L253.203 137.759H259.099ZM272.044 127.881H274.816L283.396 140.685H283.44V127.881H285.552V143.457H282.868L274.2 130.653H274.156V143.457H272.044V127.881ZM289.554 127.881H299.608V129.861H291.666V134.503H299.058V136.483H291.666V141.477H300.004V143.457H289.554V127.881ZM301.023 127.881H303.223L306.655 140.333H306.699L310.373 127.881H312.793L316.467 140.333H316.511L319.943 127.881H322.143L317.611 143.457H315.389L311.605 130.741H311.561L307.799 143.457H305.577L301.023 127.881ZM330.288 127.881H335.766C336.763 127.881 337.585 128.02 338.23 128.299C338.875 128.563 339.381 128.908 339.748 129.333C340.129 129.744 340.393 130.213 340.54 130.741C340.687 131.254 340.76 131.753 340.76 132.237C340.76 132.721 340.687 133.227 340.54 133.755C340.393 134.268 340.129 134.738 339.748 135.163C339.381 135.574 338.875 135.918 338.23 136.197C337.585 136.461 336.763 136.593 335.766 136.593H332.4V143.457H330.288V127.881ZM332.4 134.745H335.172C335.583 134.745 335.986 134.716 336.382 134.657C336.793 134.584 337.152 134.459 337.46 134.283C337.783 134.107 338.039 133.858 338.23 133.535C338.421 133.198 338.516 132.765 338.516 132.237C338.516 131.709 338.421 131.284 338.23 130.961C338.039 130.624 337.783 130.367 337.46 130.191C337.152 130.015 336.793 129.898 336.382 129.839C335.986 129.766 335.583 129.729 335.172 129.729H332.4V134.745ZM343.329 127.881H348.807C349.804 127.881 350.626 128.02 351.271 128.299C351.916 128.563 352.422 128.908 352.789 129.333C353.17 129.744 353.434 130.213 353.581 130.741C353.728 131.254 353.801 131.753 353.801 132.237C353.801 132.736 353.713 133.22 353.537 133.689C353.361 134.144 353.104 134.562 352.767 134.943C352.444 135.31 352.041 135.625 351.557 135.889C351.088 136.138 350.56 136.292 349.973 136.351L354.395 143.457H351.755L347.795 136.593H345.441V143.457H343.329V127.881ZM345.441 134.745H348.213C348.624 134.745 349.027 134.716 349.423 134.657C349.834 134.584 350.193 134.459 350.501 134.283C350.824 134.107 351.08 133.858 351.271 133.535C351.462 133.198 351.557 132.765 351.557 132.237C351.557 131.709 351.462 131.284 351.271 130.961C351.08 130.624 350.824 130.367 350.501 130.191C350.193 130.015 349.834 129.898 349.423 129.839C349.027 129.766 348.624 129.729 348.213 129.729H345.441V134.745ZM363.928 143.853C362.74 143.853 361.648 143.648 360.65 143.237C359.653 142.812 358.795 142.232 358.076 141.499C357.372 140.766 356.815 139.9 356.404 138.903C356.008 137.906 355.81 136.828 355.81 135.669C355.81 134.51 356.008 133.432 356.404 132.435C356.815 131.438 357.372 130.572 358.076 129.839C358.795 129.106 359.653 128.534 360.65 128.123C361.648 127.698 362.74 127.485 363.928 127.485C365.116 127.485 366.209 127.698 367.206 128.123C368.204 128.534 369.054 129.106 369.758 129.839C370.477 130.572 371.034 131.438 371.43 132.435C371.841 133.432 372.046 134.51 372.046 135.669C372.046 136.828 371.841 137.906 371.43 138.903C371.034 139.9 370.477 140.766 369.758 141.499C369.054 142.232 368.204 142.812 367.206 143.237C366.209 143.648 365.116 143.853 363.928 143.853ZM363.928 141.873C364.823 141.873 365.63 141.712 366.348 141.389C367.067 141.052 367.683 140.604 368.196 140.047C368.71 139.49 369.106 138.837 369.384 138.089C369.663 137.326 369.802 136.52 369.802 135.669C369.802 134.818 369.663 134.019 369.384 133.271C369.106 132.508 368.71 131.848 368.196 131.291C367.683 130.734 367.067 130.294 366.348 129.971C365.63 129.634 364.823 129.465 363.928 129.465C363.034 129.465 362.227 129.634 361.508 129.971C360.79 130.294 360.174 130.734 359.66 131.291C359.147 131.848 358.751 132.508 358.472 133.271C358.194 134.019 358.054 134.818 358.054 135.669C358.054 136.52 358.194 137.326 358.472 138.089C358.751 138.837 359.147 139.49 359.66 140.047C360.174 140.604 360.79 141.052 361.508 141.389C362.227 141.712 363.034 141.873 363.928 141.873ZM372.949 127.881H375.391L379.967 140.553H380.011L384.763 127.881H387.073L380.935 143.457H378.955L372.949 127.881ZM388.94 127.881H391.052V143.457H388.94V127.881ZM394.712 127.881H400.146C401.246 127.881 402.206 128.006 403.028 128.255C403.864 128.504 404.582 128.842 405.184 129.267C405.8 129.678 406.306 130.154 406.702 130.697C407.112 131.24 407.435 131.797 407.67 132.369C407.904 132.941 408.073 133.513 408.176 134.085C408.278 134.657 408.33 135.185 408.33 135.669C408.33 136.666 408.146 137.634 407.78 138.573C407.413 139.497 406.87 140.326 406.152 141.059C405.433 141.778 404.538 142.357 403.468 142.797C402.412 143.237 401.187 143.457 399.794 143.457H394.712V127.881ZM396.824 141.477H399.486C400.38 141.477 401.224 141.36 402.016 141.125C402.822 140.876 403.526 140.509 404.128 140.025C404.729 139.541 405.206 138.94 405.558 138.221C405.91 137.488 406.086 136.637 406.086 135.669C406.086 135.17 406.005 134.591 405.844 133.931C405.682 133.256 405.374 132.618 404.92 132.017C404.48 131.416 403.864 130.91 403.072 130.499C402.28 130.074 401.253 129.861 399.992 129.861H396.824V141.477ZM411.37 127.881H421.424V129.861H413.482V134.503H420.874V136.483H413.482V141.477H421.82V143.457H411.37V127.881ZM424.819 127.881H430.297C431.295 127.881 432.116 128.02 432.761 128.299C433.407 128.563 433.913 128.908 434.279 129.333C434.661 129.744 434.925 130.213 435.071 130.741C435.218 131.254 435.291 131.753 435.291 132.237C435.291 132.736 435.203 133.22 435.027 133.689C434.851 134.144 434.595 134.562 434.257 134.943C433.935 135.31 433.531 135.625 433.047 135.889C432.578 136.138 432.05 136.292 431.463 136.351L435.885 143.457H433.245L429.285 136.593H426.931V143.457H424.819V127.881ZM426.931 134.745H429.703C430.114 134.745 430.517 134.716 430.913 134.657C431.324 134.584 431.683 134.459 431.991 134.283C432.314 134.107 432.571 133.858 432.761 133.535C432.952 133.198 433.047 132.765 433.047 132.237C433.047 131.709 432.952 131.284 432.761 130.961C432.571 130.624 432.314 130.367 431.991 130.191C431.683 130.015 431.324 129.898 430.913 129.839C430.517 129.766 430.114 129.729 429.703 129.729H426.931V134.745Z" fill="#141414"/>
</g>
<rect x="125.5" y="100.457" width="375" height="69" stroke="#0D69D4"/>
<g clip-path="url(#clip0_484_1565)">
<mask maskUnits="userSpaceOnUse" x="0" y="0" width="0" height="0" fill="black">
<rect fill="white" width="0" height="0"/>
</mask>
<path d="M70.2929 52.2499C69.9024 52.6404 69.9024 53.2736 70.2929 53.6641L76.6569 60.0281C77.0474 60.4186 77.6805 60.4186 78.0711 60.0281C78.4616 59.6376 78.4616 59.0044 78.0711 58.6139L72.4142 52.957L78.0711 47.3002C78.4616 46.9097 78.4616 46.2765 78.0711 45.886C77.6805 45.4954 77.0474 45.4954 76.6569 45.886L70.2929 52.2499ZM101.707 53.6641C102.098 53.2736 102.098 52.6404 101.707 52.2499L95.3431 45.886C94.9526 45.4954 94.3195 45.4954 93.9289 45.886C93.5384 46.2765 93.5384 46.9097 93.9289 47.3002L99.5858 52.957L93.9289 58.6139C93.5384 59.0044 93.5384 59.6376 93.9289 60.0281C94.3195 60.4186 94.9526 60.4186 95.3431 60.0281L101.707 53.6641ZM71 53.957H101V51.957H71V53.957Z" fill="#6B6B6B" mask="url(#)"/>
</g>
<path fill-rule="evenodd" clip-rule="evenodd" d="M70.0001 44.957L70 45.957L70.0001 49.981L70 50.981L70.0001 54.9755L70 55.9755L70.0001 59.971L70 60.971H71.0001H74.9891H75.9891H80.0113H81.0113H85H86V59.971V55.9755V54.9755V50.981V49.981V45.957V44.957H85H81.0113H80.0113H75.9891H74.9891H71.0001H70.0001ZM71.0001 45.957V49.981H74.9891V45.957H71.0001ZM71.0001 50.981V54.9755H74.9891V50.981H71.0001ZM71.0001 55.9755V59.971H74.9891V55.9755H71.0001ZM85 55.9755V59.971H81.0113V55.9755H85ZM85 50.981V54.9755H81.0113V50.981H85ZM85 45.957V49.981H81.0113V45.957H85ZM80.0113 45.957H75.9891V49.9485H80.0113V45.957ZM80.0113 55.9795H75.9891V59.971H80.0113V55.9795Z" fill="#6B6B6B"/>
<g clip-path="url(#clip1_484_1565)">
<line x1="78.25" y1="101.707" x2="78.25" y2="168.207" stroke="#0D69D4" stroke-width="1.5" stroke-linecap="square"/>
<line x1="83.25" y1="101.707" x2="72.75" y2="101.707" stroke="#0D69D4" stroke-width="1.5" stroke-linecap="round"/>
<line x1="72.75" y1="168.207" x2="83.25" y2="168.207" stroke="#0D69D4" stroke-width="1.5" stroke-linecap="round"/>
</g>
<line x1="126.75" y1="52.707" x2="499.25" y2="52.707" stroke="#0D69D4" stroke-width="1.5" stroke-linecap="square"/>
<line x1="126.75" y1="47.707" x2="126.75" y2="58.207" stroke="#0D69D4" stroke-width="1.5" stroke-linecap="round"/>
<line x1="499.25" y1="58.207" x2="499.25" y2="47.707" stroke="#0D69D4" stroke-width="1.5" stroke-linecap="round"/>
<rect x="184" y="121.457" width="258" height="27" fill="#0D69D4" fill-opacity="0.2"/>
<rect x="126" y="100.957" width="374" height="10" fill="#007D00" fill-opacity="0.3"/>
<line x1="110" y1="101.457" x2="500" y2="101.457" stroke="#007D00"/>
<line x1="110" y1="110.457" x2="500" y2="110.457" stroke="#007D00"/>
<path d="M95.5043 101.23V109.957H93.6591V102.981H93.608L91.6094 104.234V102.598L93.7699 101.23H95.5043ZM101 110.149C100.267 110.146 99.6367 109.966 99.1083 109.608C98.5827 109.25 98.1779 108.731 97.8938 108.052C97.6126 107.373 97.4734 106.556 97.4762 105.602C97.4762 104.65 97.6168 103.839 97.8981 103.169C98.1822 102.498 98.587 101.988 99.1126 101.639C99.641 101.287 100.27 101.11 101 101.11C101.73 101.11 102.358 101.287 102.884 101.639C103.412 101.991 103.819 102.502 104.103 103.173C104.387 103.841 104.527 104.65 104.525 105.602C104.525 106.559 104.382 107.377 104.098 108.056C103.817 108.735 103.414 109.254 102.888 109.612C102.363 109.97 101.733 110.149 101 110.149ZM101 108.619C101.5 108.619 101.9 108.368 102.198 107.865C102.496 107.362 102.644 106.608 102.641 105.602C102.641 104.94 102.573 104.389 102.436 103.949C102.303 103.508 102.113 103.177 101.865 102.956C101.621 102.734 101.333 102.623 101 102.623C100.503 102.623 100.105 102.872 99.8072 103.369C99.5089 103.866 99.3583 104.61 99.3555 105.602C99.3555 106.272 99.4222 106.832 99.5558 107.281C99.6921 107.727 99.8839 108.062 100.131 108.287C100.378 108.508 100.668 108.619 101 108.619Z" fill="#007D00"/>
<rect x="126" y="158.957" width="374" height="10" fill="#007D00" fill-opacity="0.3"/>
<line x1="110" y1="159.457" x2="500" y2="159.457" stroke="#007D00"/>
<line x1="110" y1="168.457" x2="500" y2="168.457" stroke="#007D00"/>
<path d="M95.5043 159.23V167.957H93.6591V160.981H93.608L91.6094 162.234V160.598L93.7699 159.23H95.5043ZM101 168.149C100.267 168.146 99.6367 167.966 99.1083 167.608C98.5827 167.25 98.1779 166.731 97.8938 166.052C97.6126 165.373 97.4734 164.556 97.4762 163.602C97.4762 162.65 97.6168 161.839 97.8981 161.169C98.1822 160.498 98.587 159.988 99.1126 159.639C99.641 159.287 100.27 159.11 101 159.11C101.73 159.11 102.358 159.287 102.884 159.639C103.412 159.991 103.819 160.502 104.103 161.173C104.387 161.841 104.527 162.65 104.525 163.602C104.525 164.559 104.382 165.377 104.098 166.056C103.817 166.735 103.414 167.254 102.888 167.612C102.363 167.97 101.733 168.149 101 168.149ZM101 166.619C101.5 166.619 101.9 166.368 102.198 165.865C102.496 165.362 102.644 164.608 102.641 163.602C102.641 162.94 102.573 162.389 102.436 161.949C102.303 161.508 102.113 161.177 101.865 160.956C101.621 160.734 101.333 160.623 101 160.623C100.503 160.623 100.105 160.872 99.8072 161.369C99.5089 161.866 99.3583 162.61 99.3555 163.602C99.3555 164.272 99.4222 164.832 99.5558 165.281C99.6921 165.727 99.8839 166.062 100.131 166.287C100.378 166.508 100.668 166.619 101 166.619Z" fill="#007D00"/>
<rect x="126" y="110.957" width="72" height="48" fill="#007D00" fill-opacity="0.3"/>
<line x1="126.5" y1="84.957" x2="126.5" y2="168.957" stroke="#007D00"/>
<line x1="197.5" y1="84.957" x2="197.5" y2="168.957" stroke="#007D00"/>
<path d="M155.553 80.957L159.17 73.7979V73.7383H154.956V72.2298H161.08V73.7596L157.457 80.957H155.553ZM162.344 80.957V79.6275L165.451 76.7511C165.715 76.4954 165.936 76.2653 166.115 76.0607C166.297 75.8562 166.435 75.6559 166.529 75.4599C166.623 75.261 166.669 75.0465 166.669 74.8164C166.669 74.5607 166.611 74.3406 166.495 74.1559C166.378 73.9684 166.219 73.8249 166.017 73.7255C165.816 73.6232 165.587 73.5721 165.331 73.5721C165.064 73.5721 164.831 73.6261 164.632 73.734C164.434 73.842 164.28 73.9968 164.172 74.1985C164.064 74.4002 164.01 74.6403 164.01 74.9187H162.259C162.259 74.3477 162.388 73.8519 162.647 73.4315C162.905 73.011 163.267 72.6857 163.733 72.4556C164.199 72.2255 164.736 72.1104 165.344 72.1104C165.969 72.1104 166.513 72.2212 166.976 72.4428C167.442 72.6616 167.804 72.9656 168.063 73.3548C168.321 73.744 168.451 74.19 168.451 74.6928C168.451 75.0224 168.385 75.3477 168.255 75.6687C168.127 75.9897 167.898 76.3462 167.569 76.7383C167.239 77.1275 166.775 77.5948 166.175 78.1403L164.901 79.3888V79.4485H168.566V80.957H162.344Z" fill="#007D00"/>
<rect x="428" y="110.957" width="72" height="48" fill="#007D00" fill-opacity="0.3"/>
<line x1="428.5" y1="84.957" x2="428.5" y2="168.957" stroke="#007D00"/>
<line x1="499.5" y1="84.957" x2="499.5" y2="168.957" stroke="#007D00"/>
<path d="M457.553 80.957L461.17 73.7979V73.7383H456.956V72.2298H463.08V73.7596L459.457 80.957H457.553ZM464.344 80.957V79.6275L467.451 76.7511C467.715 76.4954 467.936 76.2653 468.115 76.0607C468.297 75.8562 468.435 75.6559 468.529 75.4599C468.623 75.261 468.669 75.0465 468.669 74.8164C468.669 74.5607 468.611 74.3406 468.495 74.1559C468.378 73.9684 468.219 73.8249 468.017 73.7255C467.816 73.6232 467.587 73.5721 467.331 73.5721C467.064 73.5721 466.831 73.6261 466.632 73.734C466.434 73.842 466.28 73.9968 466.172 74.1985C466.064 74.4002 466.01 74.6403 466.01 74.9187H464.259C464.259 74.3477 464.388 73.8519 464.647 73.4315C464.905 73.011 465.267 72.6857 465.733 72.4556C466.199 72.2255 466.736 72.1104 467.344 72.1104C467.969 72.1104 468.513 72.2212 468.976 72.4428C469.442 72.6616 469.804 72.9656 470.063 73.3548C470.321 73.744 470.451 74.19 470.451 74.6928C470.451 75.0224 470.385 75.3477 470.255 75.6687C470.127 75.9897 469.898 76.3462 469.569 76.7383C469.239 77.1275 468.775 77.5948 468.175 78.1403L466.901 79.3888V79.4485H470.566V80.957H464.344Z" fill="#007D00"/>
<defs>
<clipPath id="clip0_484_1565">
<rect width="16" height="16" fill="white" transform="translate(86 44.957)"/>
</clipPath>
<clipPath id="clip1_484_1565">
<rect width="68" height="16" fill="white" transform="matrix(0 1 -1 0 86 100.957)"/>
</clipPath>
</defs>
</svg>
