<svg width="625" height="161" viewBox="0 0 625 161" fill="none" xmlns="http://www.w3.org/2000/svg">
<g filter="url(#filter0_d_484_1637)">
<rect x="126" y="46.957" width="374" height="68" rx="5" fill="#67BBEA"/>
<path d="M191.735 73.881H201.525V75.861H193.847V80.745H200.997V82.725H193.847V89.457H191.735V73.881ZM204.368 73.881H206.48V89.457H204.368V73.881ZM210.491 73.881H213.263L221.843 86.685H221.887V73.881H223.999V89.457H221.315L212.647 76.653H212.603V89.457H210.491V73.881ZM227.649 73.881H233.083C234.183 73.881 235.144 74.0057 235.965 74.255C236.801 74.5044 237.52 74.8417 238.121 75.267C238.737 75.6777 239.243 76.1544 239.639 76.697C240.05 77.2397 240.372 77.797 240.607 78.369C240.842 78.941 241.01 79.513 241.113 80.085C241.216 80.657 241.267 81.185 241.267 81.669C241.267 82.6664 241.084 83.6344 240.717 84.573C240.35 85.497 239.808 86.3257 239.089 87.059C238.37 87.7777 237.476 88.357 236.405 88.797C235.349 89.237 234.124 89.457 232.731 89.457H227.649V73.881ZM229.761 87.477H232.423C233.318 87.477 234.161 87.3597 234.953 87.125C235.76 86.8757 236.464 86.509 237.065 86.025C237.666 85.541 238.143 84.9397 238.495 84.221C238.847 83.4877 239.023 82.637 239.023 81.669C239.023 81.1704 238.942 80.591 238.781 79.931C238.62 79.2564 238.312 78.6184 237.857 78.017C237.417 77.4157 236.801 76.9097 236.009 76.499C235.217 76.0737 234.19 75.861 232.929 75.861H229.761V87.477ZM255.315 73.881H257.229L263.895 89.457H261.431L259.869 85.607H252.455L250.915 89.457H248.451L255.315 73.881ZM259.099 83.759L256.195 76.609H256.151L253.203 83.759H259.099ZM272.044 73.881H274.816L283.396 86.685H283.44V73.881H285.552V89.457H282.868L274.2 76.653H274.156V89.457H272.044V73.881ZM289.554 73.881H299.608V75.861H291.666V80.503H299.058V82.483H291.666V87.477H300.004V89.457H289.554V73.881ZM301.023 73.881H303.223L306.655 86.333H306.699L310.373 73.881H312.793L316.467 86.333H316.511L319.943 73.881H322.143L317.611 89.457H315.389L311.605 76.741H311.561L307.799 89.457H305.577L301.023 73.881ZM330.288 73.881H335.766C336.763 73.881 337.585 74.0204 338.23 74.299C338.875 74.563 339.381 74.9077 339.748 75.333C340.129 75.7437 340.393 76.213 340.54 76.741C340.687 77.2544 340.76 77.753 340.76 78.237C340.76 78.721 340.687 79.227 340.54 79.755C340.393 80.2684 340.129 80.7377 339.748 81.163C339.381 81.5737 338.875 81.9184 338.23 82.197C337.585 82.461 336.763 82.593 335.766 82.593H332.4V89.457H330.288V73.881ZM332.4 80.745H335.172C335.583 80.745 335.986 80.7157 336.382 80.657C336.793 80.5837 337.152 80.459 337.46 80.283C337.783 80.107 338.039 79.8577 338.23 79.535C338.421 79.1977 338.516 78.765 338.516 78.237C338.516 77.709 338.421 77.2837 338.23 76.961C338.039 76.6237 337.783 76.367 337.46 76.191C337.152 76.015 336.793 75.8977 336.382 75.839C335.986 75.7657 335.583 75.729 335.172 75.729H332.4V80.745ZM343.329 73.881H348.807C349.804 73.881 350.626 74.0204 351.271 74.299C351.916 74.563 352.422 74.9077 352.789 75.333C353.17 75.7437 353.434 76.213 353.581 76.741C353.728 77.2544 353.801 77.753 353.801 78.237C353.801 78.7357 353.713 79.2197 353.537 79.689C353.361 80.1437 353.104 80.5617 352.767 80.943C352.444 81.3097 352.041 81.625 351.557 81.889C351.088 82.1384 350.56 82.2924 349.973 82.351L354.395 89.457H351.755L347.795 82.593H345.441V89.457H343.329V73.881ZM345.441 80.745H348.213C348.624 80.745 349.027 80.7157 349.423 80.657C349.834 80.5837 350.193 80.459 350.501 80.283C350.824 80.107 351.08 79.8577 351.271 79.535C351.462 79.1977 351.557 78.765 351.557 78.237C351.557 77.709 351.462 77.2837 351.271 76.961C351.08 76.6237 350.824 76.367 350.501 76.191C350.193 76.015 349.834 75.8977 349.423 75.839C349.027 75.7657 348.624 75.729 348.213 75.729H345.441V80.745ZM363.928 89.853C362.74 89.853 361.648 89.6477 360.65 89.237C359.653 88.8117 358.795 88.2324 358.076 87.499C357.372 86.7657 356.815 85.9004 356.404 84.903C356.008 83.9057 355.81 82.8277 355.81 81.669C355.81 80.5104 356.008 79.4324 356.404 78.435C356.815 77.4377 357.372 76.5724 358.076 75.839C358.795 75.1057 359.653 74.5337 360.65 74.123C361.648 73.6977 362.74 73.485 363.928 73.485C365.116 73.485 366.209 73.6977 367.206 74.123C368.204 74.5337 369.054 75.1057 369.758 75.839C370.477 76.5724 371.034 77.4377 371.43 78.435C371.841 79.4324 372.046 80.5104 372.046 81.669C372.046 82.8277 371.841 83.9057 371.43 84.903C371.034 85.9004 370.477 86.7657 369.758 87.499C369.054 88.2324 368.204 88.8117 367.206 89.237C366.209 89.6477 365.116 89.853 363.928 89.853ZM363.928 87.873C364.823 87.873 365.63 87.7117 366.348 87.389C367.067 87.0517 367.683 86.6044 368.196 86.047C368.71 85.4897 369.106 84.837 369.384 84.089C369.663 83.3264 369.802 82.5197 369.802 81.669C369.802 80.8184 369.663 80.019 369.384 79.271C369.106 78.5084 368.71 77.8484 368.196 77.291C367.683 76.7337 367.067 76.2937 366.348 75.971C365.63 75.6337 364.823 75.465 363.928 75.465C363.034 75.465 362.227 75.6337 361.508 75.971C360.79 76.2937 360.174 76.7337 359.66 77.291C359.147 77.8484 358.751 78.5084 358.472 79.271C358.194 80.019 358.054 80.8184 358.054 81.669C358.054 82.5197 358.194 83.3264 358.472 84.089C358.751 84.837 359.147 85.4897 359.66 86.047C360.174 86.6044 360.79 87.0517 361.508 87.389C362.227 87.7117 363.034 87.873 363.928 87.873ZM372.949 73.881H375.391L379.967 86.553H380.011L384.763 73.881H387.073L380.935 89.457H378.955L372.949 73.881ZM388.94 73.881H391.052V89.457H388.94V73.881ZM394.712 73.881H400.146C401.246 73.881 402.206 74.0057 403.028 74.255C403.864 74.5044 404.582 74.8417 405.184 75.267C405.8 75.6777 406.306 76.1544 406.702 76.697C407.112 77.2397 407.435 77.797 407.67 78.369C407.904 78.941 408.073 79.513 408.176 80.085C408.278 80.657 408.33 81.185 408.33 81.669C408.33 82.6664 408.146 83.6344 407.78 84.573C407.413 85.497 406.87 86.3257 406.152 87.059C405.433 87.7777 404.538 88.357 403.468 88.797C402.412 89.237 401.187 89.457 399.794 89.457H394.712V73.881ZM396.824 87.477H399.486C400.38 87.477 401.224 87.3597 402.016 87.125C402.822 86.8757 403.526 86.509 404.128 86.025C404.729 85.541 405.206 84.9397 405.558 84.221C405.91 83.4877 406.086 82.637 406.086 81.669C406.086 81.1704 406.005 80.591 405.844 79.931C405.682 79.2564 405.374 78.6184 404.92 78.017C404.48 77.4157 403.864 76.9097 403.072 76.499C402.28 76.0737 401.253 75.861 399.992 75.861H396.824V87.477ZM411.37 73.881H421.424V75.861H413.482V80.503H420.874V82.483H413.482V87.477H421.82V89.457H411.37V73.881ZM424.819 73.881H430.297C431.295 73.881 432.116 74.0204 432.761 74.299C433.407 74.563 433.913 74.9077 434.279 75.333C434.661 75.7437 434.925 76.213 435.071 76.741C435.218 77.2544 435.291 77.753 435.291 78.237C435.291 78.7357 435.203 79.2197 435.027 79.689C434.851 80.1437 434.595 80.5617 434.257 80.943C433.935 81.3097 433.531 81.625 433.047 81.889C432.578 82.1384 432.05 82.2924 431.463 82.351L435.885 89.457H433.245L429.285 82.593H426.931V89.457H424.819V73.881ZM426.931 80.745H429.703C430.114 80.745 430.517 80.7157 430.913 80.657C431.324 80.5837 431.683 80.459 431.991 80.283C432.314 80.107 432.571 79.8577 432.761 79.535C432.952 79.1977 433.047 78.765 433.047 78.237C433.047 77.709 432.952 77.2837 432.761 76.961C432.571 76.6237 432.314 76.367 431.991 76.191C431.683 76.015 431.324 75.8977 430.913 75.839C430.517 75.7657 430.114 75.729 429.703 75.729H426.931V80.745Z" fill="#141414"/>
</g>
<defs>
<filter id="filter0_d_484_1637" x="122" y="46.957" width="382" height="76" filterUnits="userSpaceOnUse" color-interpolation-filters="sRGB">
<feFlood flood-opacity="0" result="BackgroundImageFix"/>
<feColorMatrix in="SourceAlpha" type="matrix" values="0 0 0 0 0 0 0 0 0 0 0 0 0 0 0 0 0 0 127 0" result="hardAlpha"/>
<feOffset dy="4"/>
<feGaussianBlur stdDeviation="2"/>
<feComposite in2="hardAlpha" operator="out"/>
<feColorMatrix type="matrix" values="0 0 0 0 0 0 0 0 0 0 0 0 0 0 0 0 0 0 0.25 0"/>
<feBlend mode="normal" in2="BackgroundImageFix" result="effect1_dropShadow_484_1637"/>
<feBlend mode="normal" in="SourceGraphic" in2="effect1_dropShadow_484_1637" result="shape"/>
</filter>
</defs>
</svg>
