<svg width="303" height="53" viewBox="0 0 303 53" fill="none" xmlns="http://www.w3.org/2000/svg">
<path d="M29.7662 1C36.3486 1.5808 40.2932 2.97633 41.4427 3.6015C50.1547 8.4899 52.6957 18.9483 52.8772 23.5665V24.837L55.5997 27.4385L57.4147 32.5205V34.8195L56.1442 30.766L53.6637 27.4385L52.8772 26.41L52.4537 29.8585L53.1192 34.8195V36.5135L51.7882 33.8515L51.1227 37.542L50.7597 40.5065L51.1227 42.382L52.1512 44.7415L50.7597 43.2895L51.1227 45.528L52.4537 48.19L50.2757 46.133L50.0337 44.2575L49.1262 45.77L48.4607 42.382L47.3717 47.222L46.3432 48.3715L47.3717 43.592L47.0692 43.2895L44.6492 47.8875L44.4072 48.674L47.3717 49.763L47.7952 50.247V50.6705L44.0442 50.247L40.0601 44.2575C41.3224 42.6652 42.4568 40.5851 43.3787 37.905C44.8509 33.1255 46.9119 20.9771 43.3787 10.6195C42.2292 8.28017 38.1636 3.6015 31.0972 3.6015C30.2704 3.46033 27.0074 4.2549 20.5702 8.5625C18.6141 11.0228 14.7017 17.3955 14.7017 23.2035C14.0168 26.5961 14.2704 34.0269 19.081 41.293L20.8683 51.8594C20.9859 52.1666 20.9905 52.2696 20.9332 52.2435L20.8683 51.8594C20.5305 50.9775 19.2612 48.4123 15.8512 42.382L16.6982 45.77L18.1502 48.674L15.6092 46.98L13.6732 41.656L14.7017 46.617L15.6092 48.674L12.5237 49.279L10.8297 48.3715H13.6732L13.3102 46.98L12.1002 44.7415V41.293L10.3457 43.592L10.8297 38.026V25.563L9.74072 26.2285L10.3457 19.876L13.6732 10.6195L17.0612 4.5695L23.0507 2.6335L29.7662 1Z" fill="#0060A5" stroke="#0060A5" stroke-width="1.21"/>
<path d="M15.0044 20.239V17.577H17.0009C20.3687 16.5283 27.4553 15.4595 28.8589 19.5735C29.4437 19.3315 30.9885 18.9927 32.4889 19.5735L33.0939 19.15C33.4569 18.7063 34.4128 17.7706 35.3324 17.577C37.3894 17.2745 42.3867 17.1656 45.9199 19.15H46.7669V21.207H45.5569C45.5569 22.5985 45.1697 25.7203 43.6209 27.0755C42.0076 28.4065 37.8613 30.2699 34.1829 27.0755C33.3964 26.3293 31.8234 24.0384 31.8234 20.844C31.6217 20.481 30.7949 19.9728 29.1009 20.844C28.9799 21.7717 28.4838 23.9779 27.4674 25.3815C27.0439 26.6318 24.6118 28.8421 18.2714 27.6805C17.4244 27.3377 15.7304 25.3694 15.7304 20.239H15.0044Z" fill="#0060A5" stroke="#0060A5" stroke-width="1.21"/>
<path d="M26.8217 18.7136C25.2689 17.9069 21.05 16.8623 16.5972 19.1371C16.0527 19.5606 15.5687 21.3393 17.9887 25.0661C19.5416 26.1753 23.2643 27.9096 25.7327 25.9736C27.1847 24.4006 29.4353 20.7464 26.8217 18.7136Z" fill="white" stroke="#0060A5" stroke-width="1.21"/>
<path d="M44.0039 19.8631C40.9587 18.7136 34.6143 17.1043 33.5979 19.8631C33.4366 22.4848 34.0819 27.7281 37.9539 27.7281H40.1319C41.2007 27.9298 44.0039 26.3971 44.0039 19.8631Z" fill="white" stroke="#0060A5" stroke-width="1.21"/>
<path d="M75.1977 25.7313H81.8976V26.7948C81.8976 32.124 81.4309 35.7221 80.4974 37.5891C79.5757 39.5033 77.8505 40.4605 75.3218 40.4605C72.7104 40.4605 70.8493 39.397 69.7386 37.27C68.6396 35.1431 68.0902 31.5686 68.0902 26.5466C68.0902 20.8039 68.6928 16.9813 69.8981 15.0788C71.0325 13.2945 72.7754 12.4024 75.1268 12.4024C76.9229 12.4024 78.3232 12.8337 79.3276 13.6963C80.3438 14.5707 81.1355 16.0064 81.7027 18.0034L78.2641 19.4391C78.1105 18.7183 77.9391 18.1156 77.7501 17.6312C77.561 17.1349 77.3542 16.7508 77.1297 16.4791C76.6807 15.9237 76.0072 15.646 75.1091 15.646C73.8802 15.646 73.0412 16.4023 72.5922 17.9148C72.1432 19.4982 71.9187 22.34 71.9187 26.4403C71.9187 30.5878 72.1491 33.3942 72.6099 34.8595C73.0708 36.3247 73.9393 37.0573 75.2155 37.0573C76.3853 37.0573 77.2065 36.5374 77.6792 35.4976C78.1637 34.3868 78.4059 32.6025 78.4059 30.1447V29.4003V28.8508H75.1977V25.7313ZM85.5844 12.7569H90.4409C92.4497 12.7569 93.9445 13.2355 94.9252 14.1926C96.166 15.4333 96.7863 17.3298 96.7863 19.8822C96.7863 21.8437 96.4555 23.4212 95.7937 24.6147C95.1438 25.7963 94.2103 26.5289 92.9932 26.8125L98.027 40.1237H94.2871L89.2711 26.7239V40.1237H85.5844V12.7569ZM89.2711 24.8805C90.7009 24.8805 91.7112 24.5497 92.302 23.8879C92.8928 23.2262 93.1882 22.1096 93.1882 20.538C93.1882 19.6872 93.1232 18.9605 92.9932 18.3579C92.8751 17.7552 92.6801 17.2649 92.4083 16.8867C92.1484 16.5086 91.8057 16.2309 91.3803 16.0537C90.9667 15.8764 90.4704 15.7878 89.8914 15.7878H89.2711V24.8805ZM100.898 12.7569H110.7V15.8764H104.585V24.5438H110.009V27.6633H104.585V37.0042H110.7V40.1237H100.898V12.7569ZM120.644 25.7313H127.344V26.7948C127.344 32.124 126.877 35.7221 125.943 37.5891C125.022 39.5033 123.296 40.4605 120.768 40.4605C118.156 40.4605 116.295 39.397 115.184 37.27C114.086 35.1431 113.536 31.5686 113.536 26.5466C113.536 20.8039 114.139 16.9813 115.344 15.0788C116.478 13.2945 118.221 12.4024 120.573 12.4024C122.369 12.4024 123.769 12.8337 124.773 13.6963C125.79 14.5707 126.581 16.0064 127.149 18.0034L123.71 19.4391C123.556 18.7183 123.385 18.1156 123.196 17.6312C123.007 17.1349 122.8 16.7508 122.576 16.4791C122.127 15.9237 121.453 15.646 120.555 15.646C119.326 15.646 118.487 16.4023 118.038 17.9148C117.589 19.4982 117.365 22.34 117.365 26.4403C117.365 30.5878 117.595 33.3942 118.056 34.8595C118.517 36.3247 119.385 37.0573 120.661 37.0573C121.831 37.0573 122.652 36.5374 123.125 35.4976C123.61 34.3868 123.852 32.6025 123.852 30.1447V29.4003V28.8508H120.644V25.7313ZM144.731 27.1138C144.731 31.9467 144.194 35.3794 143.118 37.4118C142.043 39.4442 140.241 40.4605 137.712 40.4605C135.054 40.4605 133.181 39.3674 132.094 37.1814C131.018 35.0426 130.481 31.2437 130.481 25.7845C130.481 20.9161 131.013 17.4716 132.076 15.451C133.151 13.4186 134.971 12.4024 137.535 12.4024C139.828 12.4024 141.529 13.1882 142.64 14.7598C143.372 15.8114 143.904 17.3062 144.235 19.2441C144.566 21.0402 144.731 23.6634 144.731 27.1138ZM140.867 27.5038C140.867 22.7654 140.655 19.6222 140.229 18.0743C139.804 16.5145 138.935 15.7346 137.624 15.7346C136.312 15.7346 135.438 16.4495 135.001 17.8793C134.575 19.3209 134.362 22.2159 134.362 26.5644C134.362 30.5701 134.587 33.347 135.036 34.8949C135.497 36.3602 136.359 37.0928 137.624 37.0928C138.865 37.0928 139.715 36.4074 140.176 35.0367C140.637 33.6778 140.867 31.1669 140.867 27.5038ZM148.4 12.7569H153.257C155.266 12.7569 156.76 13.2355 157.741 14.1926C158.982 15.4333 159.602 17.3298 159.602 19.8822C159.602 21.8437 159.271 23.4212 158.61 24.6147C157.96 25.7963 157.026 26.5289 155.809 26.8125L160.843 40.1237H157.103L152.087 26.7239V40.1237H148.4V12.7569ZM152.087 24.8805C153.517 24.8805 154.527 24.5497 155.118 23.8879C155.709 23.2262 156.004 22.1096 156.004 20.538C156.004 19.6872 155.939 18.9605 155.809 18.3579C155.691 17.7552 155.496 17.2649 155.224 16.8867C154.964 16.5086 154.622 16.2309 154.196 16.0537C153.783 15.8764 153.286 15.7878 152.707 15.7878H152.087V24.8805ZM161.286 12.7569H165.186L166.993 18.7124C167.053 18.8896 167.112 19.0846 167.171 19.2973C167.23 19.51 167.301 19.7404 167.383 19.9885C168.057 22.1391 168.518 23.947 168.766 25.4123C168.979 23.947 169.156 22.9249 169.298 22.3459L169.865 19.8999L170.078 18.9428L171.602 12.7569H175.448L170.68 28.3545V40.1237H166.993V28.3545L161.286 12.7569ZM194.148 13.3241V16.9222C193.025 16.1187 192.015 15.7169 191.117 15.7169C190.148 15.7169 189.356 16.0596 188.742 16.7449C188.127 17.3948 187.82 18.2633 187.82 19.3504C187.82 20.3076 188.039 21.1288 188.476 21.8142C188.7 22.1805 189.067 22.6531 189.575 23.2321C190.095 23.8111 190.762 24.5083 191.578 25.3236C193.078 26.848 194.1 28.1655 194.644 29.2762C195.187 30.3515 195.459 31.669 195.459 33.2288C195.459 35.344 194.862 37.0869 193.669 38.4576C192.476 39.7928 190.945 40.4605 189.078 40.4605C187.507 40.4605 186.166 40.0292 185.055 39.1666V35.5153C186.366 36.4724 187.56 36.951 188.635 36.951C189.64 36.951 190.425 36.6201 190.993 35.9584C191.56 35.2849 191.843 34.375 191.843 33.2288C191.843 32.2362 191.625 31.3441 191.188 30.5524C190.963 30.1743 190.65 29.743 190.248 29.2585C189.846 28.7622 189.344 28.2128 188.742 27.6101C187.808 26.6884 187.034 25.8731 186.42 25.1641C185.805 24.4551 185.35 23.8348 185.055 23.303C184.488 22.2632 184.204 20.9516 184.204 19.3682C184.204 17.2294 184.759 15.5337 185.87 14.2812C186.993 13.0169 188.499 12.3847 190.39 12.3847C191.702 12.3847 192.954 12.6978 194.148 13.3241ZM196.842 12.7569H208.841V15.9828H204.711V40.1237H201.096V15.9828H196.842V12.7569ZM210.897 12.7569H220.699V15.8764H214.584V24.5438H220.008V27.6633H214.584V37.0042H220.699V40.1237H210.897V12.7569ZM222.028 12.7569H225.591L227.452 25.4654L227.753 27.3442C227.895 28.3605 228.002 29.288 228.072 30.127L228.267 32.4489C228.279 32.508 228.291 32.6144 228.303 32.768C228.315 32.9216 228.332 33.1166 228.356 33.3529L228.445 32.4667C228.586 30.9187 228.734 29.4948 228.888 28.195C229.053 26.8952 229.23 25.6959 229.42 24.5969L231.387 12.7569H234.223L236.066 24.2602C236.338 25.9617 236.563 27.5392 236.74 28.9926C236.929 30.4461 237.082 31.8345 237.201 33.1579C237.319 31.7636 237.449 30.4165 237.591 29.1167C237.744 27.8169 237.904 26.5407 238.069 25.2882L238.335 23.4626L239.913 12.7569H243.44L238.601 40.1237H235.73L233.798 28.3014C233.786 28.2541 233.756 28.0591 233.709 27.7165C233.662 27.3738 233.591 26.8834 233.496 26.2453L233.124 23.5157C233.1 23.303 233.059 22.984 233 22.5586C232.953 22.1332 232.899 21.5956 232.84 20.9457L232.752 19.8113C232.728 20.0831 232.705 20.3194 232.681 20.5203C232.657 20.7211 232.64 20.8866 232.628 21.0166C232.569 21.7964 232.515 22.405 232.468 22.8422C232.433 23.2676 232.409 23.5275 232.397 23.6221L232.025 26.2453C231.942 26.848 231.877 27.3206 231.83 27.6633C231.783 28.006 231.747 28.2187 231.724 28.3014L229.721 40.1237H226.761L222.028 12.7569ZM248.863 12.7569H251.735L257.602 40.1237H253.95L252.922 34.7886H247.499L246.453 40.1237H242.908L248.863 12.7569ZM252.391 31.9349L251.575 27.5747C251.032 24.6087 250.589 21.4419 250.246 18.0743C250.081 19.7168 249.868 21.3829 249.608 23.0726C249.348 24.7505 249.041 26.5348 248.686 28.4254L248.013 31.9349H252.391ZM259.782 12.7569H264.638C266.647 12.7569 268.142 13.2355 269.123 14.1926C270.363 15.4333 270.984 17.3298 270.984 19.8822C270.984 21.8437 270.653 23.4212 269.991 24.6147C269.341 25.7963 268.408 26.5289 267.191 26.8125L272.224 40.1237H268.485L263.469 26.7239V40.1237H259.782V12.7569ZM263.469 24.8805C264.898 24.8805 265.909 24.5497 266.499 23.8879C267.09 23.2262 267.386 22.1096 267.386 20.538C267.386 19.6872 267.321 18.9605 267.191 18.3579C267.073 17.7552 266.878 17.2649 266.606 16.8867C266.346 16.5086 266.003 16.2309 265.578 16.0537C265.164 15.8764 264.668 15.7878 264.089 15.7878H263.469V24.8805ZM273.27 12.7569H285.27V15.9828H281.14V40.1237H277.524V15.9828H273.27V12.7569Z" fill="#0060A5"/>
</svg>
